<svg width="18" height="19" viewBox="0 0 18 19" fill="none" xmlns="http://www.w3.org/2000/svg">
<g clip-path="url(#clip0_1583_2922)">
<path d="M15 2.75H14.25V1.25H12.75V2.75H5.25V1.25H3.75V2.75H3C2.175 2.75 1.5 3.425 1.5 4.25V16.25C1.5 17.075 2.175 17.75 3 17.75H15C15.825 17.75 16.5 17.075 16.5 16.25V4.25C16.5 3.425 15.825 2.75 15 2.75ZM15 4.25V6.5H3V4.25H15ZM3 16.25V8H15V16.25H3Z" fill="#406060"/>
<path opacity="0.3" d="M3 4.25781H15V6.50031H3V4.25781Z" fill="#406060"/>
</g>
<defs>
<clipPath id="clip0_1583_2922">
<rect width="18" height="18" fill="white" transform="translate(0 0.5)"/>
</clipPath>
</defs>
</svg>
