<svg width="18" height="19" viewBox="0 0 18 19" fill="none" xmlns="http://www.w3.org/2000/svg">
<g clip-path="url(#clip0_1583_2928)">
<path opacity="0.3" d="M9 5C6.075 5 3.75 7.325 3.75 10.25C3.75 13.175 6.075 15.5 9 15.5C11.925 15.5 14.25 13.175 14.25 10.25C14.25 7.325 11.925 5 9 5ZM11.775 13.175L8.25 11V6.5H9.375V10.475L12.375 12.275L11.775 13.175Z" fill="#406060"/>
<path d="M16.5 4.77461L13.05 1.84961L12.075 2.97461L15.525 5.89961L16.5 4.77461ZM9.375 6.49961H8.25V10.9996L11.775 13.1746L12.375 12.2746L9.375 10.4746V6.49961ZM9 3.49961C5.25 3.49961 2.25 6.49961 2.25 10.2496C2.25 13.9996 5.25 16.9996 9 16.9996C12.75 16.9996 15.75 13.9996 15.75 10.2496C15.75 6.49961 12.75 3.49961 9 3.49961ZM9 15.4996C6.075 15.4996 3.75 13.1746 3.75 10.2496C3.75 7.32461 6.075 4.99961 9 4.99961C11.925 4.99961 14.25 7.32461 14.25 10.2496C14.25 13.1746 11.925 15.4996 9 15.4996ZM5.925 3.04961L4.95 1.92461L1.5 4.77461L2.475 5.89961L5.925 3.04961Z" fill="#406060"/>
</g>
<defs>
<clipPath id="clip0_1583_2928">
<rect width="18" height="18" fill="white" transform="translate(0 0.5)"/>
</clipPath>
</defs>
</svg>
