<svg width="18" height="18" viewBox="0 0 18 18" fill="none" xmlns="http://www.w3.org/2000/svg">
<g clip-path="url(#clip0_1583_1646)">
<path opacity="0.3" d="M12.833 8.12266L10.9805 7.96516L10.0805 7.89016L9.72797 7.05766L9.00047 5.34766L8.27297 7.05766L7.92047 7.89016L7.02047 7.96516L5.16797 8.12266L6.57797 9.34516L7.26047 9.93766L7.05797 10.8152L6.63047 12.6302L8.22797 11.6702L9.00047 11.1977L9.77297 11.6702L11.3705 12.6302L10.943 10.8152L10.7405 9.93766L11.423 9.34516L12.833 8.12266Z" fill="#FFB800"/>
<path d="M16.5 6.93L11.1075 6.4725L9 1.5L6.8925 6.4725L1.5 6.93L5.595 10.4775L4.365 15.75L9 12.9525L13.635 15.75L12.405 10.4775L16.5 6.93ZM10.9425 10.815L11.3625 12.6225L9.7725 11.6625L9 11.1975L8.2275 11.6625L6.6375 12.6225L7.0575 10.815L7.26 9.93L6.5775 9.3375L5.1675 8.115L7.02 7.9575L7.92 7.8825L8.2725 7.05L9 5.3475L9.7275 7.065L10.08 7.8975L10.98 7.9725L12.8325 8.13L11.4225 9.3525L10.74 9.945L10.9425 10.815Z" fill="#FFB800"/>
</g>
<defs>
<clipPath id="clip0_1583_1646">
<rect width="18" height="18" fill="white"/>
</clipPath>
</defs>
</svg>
