<svg width="16" height="16" viewBox="0 0 16 16" fill="none" xmlns="http://www.w3.org/2000/svg">
<path d="M11.18 4.81219C10.3025 3.93469 9.155 3.49219 8 3.49219V7.99219L4.82 11.1722C6.575 12.9272 9.425 12.9272 11.1875 11.1722C12.9425 9.41719 12.9425 6.56719 11.18 4.81219ZM8 0.492188C3.86 0.492188 0.5 3.85219 0.5 7.99219C0.5 12.1322 3.86 15.4922 8 15.4922C12.14 15.4922 15.5 12.1322 15.5 7.99219C15.5 3.85219 12.14 0.492188 8 0.492188ZM8 13.9922C4.685 13.9922 2 11.3072 2 7.99219C2 4.67719 4.685 1.99219 8 1.99219C11.315 1.99219 14 4.67719 14 7.99219C14 11.3072 11.315 13.9922 8 13.9922Z" fill="#F2994A"/>
</svg>
