<svg width="24" height="24" viewBox="0 0 24 24" fill="none" xmlns="http://www.w3.org/2000/svg">
<path d="M8.85156 13.7035C5.85156 16.2035 6.35156 18.2035 6.35156 18.7035C6.85156 21.7034 10.8516 21.7037 12.3516 21.2037C13.8516 20.7037 16.8516 21.7037 18.3516 21.2037C19.8516 20.7037 18.3516 20.2037 17.3516 19.7037C16.3516 19.2037 16.3516 18.2037 16.3516 16.7037C16.3516 15.2037 15.8516 13.0073 16.3516 12.0074C16.8516 11.0075 16.8516 10.7037 17.3516 9.70368C17.8516 8.70368 19.3516 9.70368 20.8516 9.20368C22.0516 8.80368 21.6849 8.03701 21.3516 7.70368C20.8516 7.20363 19.2203 6.30732 18.8203 5.50732C18.3203 4.50732 16.8516 3.70354 16.3516 4.20354C15.8516 4.70354 11.8516 11.2035 8.85156 13.7035Z" fill="#7B9797" fill-opacity="0.3"/>
<mask id="path-2-outside-1_1313_2738" maskUnits="userSpaceOnUse" x="1" y="1" width="22" height="22" fill="black">
<rect fill="white" x="1" y="1" width="22" height="22"/>
<path d="M21.508 7.29906C20.7255 7.12777 20.033 6.67514 19.5621 6.02707C19.1432 5.2794 18.5389 4.65213 17.8074 4.2056L17.1608 2.3902C17.1204 2.2811 17.0485 2.18642 16.9543 2.11811C16.8601 2.0498 16.7478 2.01091 16.6316 2.00637C16.5153 2.00182 16.4003 2.03181 16.3011 2.09256C16.2018 2.15331 16.1228 2.24209 16.074 2.3477C15.7816 3.01936 15.6199 3.74056 15.5974 4.47275C15.3757 4.87954 14.635 6.23957 13.8821 7.42656C12.8453 7.64616 11.7739 7.64616 10.7371 7.42656C9.48283 7.1678 8.2857 6.68442 7.20343 5.99974C5.61146 4.98423 4.204 3.70509 3.04138 2.21716C2.99294 2.15736 2.9332 2.10769 2.86556 2.07098C2.79793 2.03427 2.72372 2.01124 2.64719 2.0032C2.57065 1.99517 2.49328 2.00229 2.4195 2.02415C2.34572 2.04602 2.27696 2.08221 2.21716 2.13064C2.15736 2.17908 2.10769 2.23882 2.07098 2.30646C2.03427 2.37409 2.01124 2.4483 2.0032 2.52483C1.99517 2.60137 2.00229 2.67874 2.02415 2.75252C2.04602 2.8263 2.08221 2.89506 2.13064 2.95486C3.37913 4.54621 4.88921 5.9136 6.59627 6.99852C7.80621 7.75635 9.14323 8.2891 10.5428 8.57105C11.3567 8.73437 12.1885 8.7905 13.0169 8.73802C12.8986 8.88981 12.7862 9.02338 12.683 9.13267L6.53252 15.438C6.13761 15.7874 5.82097 16.2162 5.60333 16.6965C5.3857 17.1767 5.27198 17.6976 5.26964 18.2248V18.2552C5.26948 18.4094 5.2786 18.5635 5.29696 18.7166C5.30304 19.2 5.14221 19.6707 4.84159 20.0493C4.40748 20.5533 3.6546 20.7992 2.60119 20.784C2.4458 20.784 2.29677 20.8457 2.18689 20.9556C2.07701 21.0655 2.01528 21.2145 2.01528 21.3699C2.01528 21.5253 2.07701 21.6743 2.18689 21.7842C2.29677 21.8941 2.4458 21.9558 2.60119 21.9558H2.71655C4.08265 21.9558 5.10571 21.5672 5.75233 20.8022C5.83832 20.7003 5.91743 20.5928 5.98912 20.4804C6.31844 20.9401 6.75209 21.3152 7.25448 21.5749C7.75687 21.8345 8.31367 21.9713 8.87918 21.974H14.3861L18.788 22.0135C18.8719 22.0121 18.9546 21.9932 19.0309 21.9582C19.1072 21.9232 19.1754 21.8728 19.2312 21.8101C19.2866 21.7457 19.3273 21.6699 19.3504 21.5881C19.3735 21.5063 19.3784 21.4204 19.3648 21.3365C19.2906 20.9035 19.0978 20.4995 18.8079 20.1694C18.518 19.8392 18.1422 19.5959 17.7224 19.4665C17.4994 19.3785 17.2687 19.3114 17.0333 19.2661V16.5339C17.2469 15.9953 17.3501 15.4192 17.3369 14.8399C17.3369 13.7774 17.1608 12.976 16.8177 12.4447L17.2367 10.4047L17.8651 9.92197C18.311 10.2877 18.87 10.4873 19.4467 10.4866C20.1325 10.477 20.7864 10.1958 21.265 9.70464C21.7437 9.21348 22.0079 8.55251 21.9998 7.86675C21.9979 7.72933 21.9475 7.597 21.8576 7.49313C21.7676 7.38925 21.6438 7.32052 21.508 7.29906ZM17.349 20.5593C17.517 20.6225 17.6746 20.7105 17.8165 20.8204L14.9234 20.784L14.6897 18.1429C14.6771 17.9997 14.6122 17.8661 14.5076 17.7676C14.4029 17.6691 14.2657 17.6125 14.122 17.6086C13.3459 17.5634 12.5757 17.7676 11.9241 18.1914C11.7311 17.3101 11.257 16.5153 10.5731 15.9267C10.4483 15.8342 10.2919 15.7949 10.1382 15.8177C9.98445 15.8405 9.84608 15.9234 9.75349 16.0482C9.66089 16.173 9.62167 16.3294 9.64444 16.4832C9.66722 16.6369 9.75012 16.7752 9.87492 16.8678C9.87492 16.8678 10.9465 17.7209 10.9071 19.6395C10.9066 19.7925 10.9638 19.94 11.0674 20.0525C11.171 20.1651 11.3132 20.2344 11.4657 20.2467C11.9055 20.2765 12.3405 20.3569 12.7619 20.4865C13.0011 20.5545 13.2291 20.6567 13.4389 20.7901H8.88525C8.29288 20.7796 7.72402 20.5564 7.28259 20.1613C6.84116 19.7661 6.55661 19.2253 6.48092 18.6377C6.47879 18.4987 6.46967 18.3599 6.45359 18.2218C6.45588 17.8586 6.53528 17.5 6.68652 17.1698C6.83777 16.8395 7.05741 16.5452 7.33093 16.3062L7.36736 16.2698L13.4966 9.94626C13.8159 9.5933 14.1081 9.21681 14.3709 8.81998L16.0649 10.2984L15.6186 12.4781C15.6014 12.5693 15.6053 12.6632 15.63 12.7527C15.6547 12.8422 15.6996 12.9248 15.7613 12.9942C15.8827 13.1247 16.162 13.5649 16.1681 14.8521C16.1803 15.3118 16.0923 15.7686 15.91 16.1909C15.8785 16.2648 15.862 16.3442 15.8615 16.4246V19.7913C15.8607 19.9454 15.9209 20.0935 16.029 20.2033C16.1371 20.3131 16.2842 20.3756 16.4383 20.3772C16.7494 20.3908 17.0566 20.4523 17.349 20.5593ZM13.6393 19.5697C13.4708 19.4907 13.2974 19.4228 13.1202 19.3663C12.9168 19.3025 12.7164 19.254 12.513 19.2145C12.8249 18.9865 13.1936 18.8489 13.5786 18.8168L13.6393 19.5697ZM19.4467 9.32392C19.2399 9.32289 19.036 9.27447 18.8507 9.18237C18.6655 9.09028 18.5038 8.95696 18.3781 8.79266C18.2829 8.67155 18.1438 8.59282 17.991 8.5735C17.8382 8.55418 17.6839 8.59583 17.5615 8.68944L16.7297 9.32392L15.0145 7.82728C15.8706 6.446 16.6447 4.98883 16.6963 4.89168C16.7241 4.83909 16.7446 4.7829 16.757 4.72472L16.7874 4.81579C16.8159 4.89177 16.8593 4.96128 16.9151 5.0202C16.9709 5.07912 17.0379 5.12626 17.1122 5.15883C17.8013 5.46241 18.3812 6.30636 18.5481 6.60994L18.5785 6.66154C19.1105 7.4327 19.8787 8.01014 20.7673 8.30694C20.6862 8.59614 20.5138 8.85138 20.2758 9.03465C20.0379 9.21791 19.7471 9.31938 19.4467 9.32392Z"/>
</mask>
<path d="M21.508 7.29906C20.7255 7.12777 20.033 6.67514 19.5621 6.02707C19.1432 5.2794 18.5389 4.65213 17.8074 4.2056L17.1608 2.3902C17.1204 2.2811 17.0485 2.18642 16.9543 2.11811C16.8601 2.0498 16.7478 2.01091 16.6316 2.00637C16.5153 2.00182 16.4003 2.03181 16.3011 2.09256C16.2018 2.15331 16.1228 2.24209 16.074 2.3477C15.7816 3.01936 15.6199 3.74056 15.5974 4.47275C15.3757 4.87954 14.635 6.23957 13.8821 7.42656C12.8453 7.64616 11.7739 7.64616 10.7371 7.42656C9.48283 7.1678 8.2857 6.68442 7.20343 5.99974C5.61146 4.98423 4.204 3.70509 3.04138 2.21716C2.99294 2.15736 2.9332 2.10769 2.86556 2.07098C2.79793 2.03427 2.72372 2.01124 2.64719 2.0032C2.57065 1.99517 2.49328 2.00229 2.4195 2.02415C2.34572 2.04602 2.27696 2.08221 2.21716 2.13064C2.15736 2.17908 2.10769 2.23882 2.07098 2.30646C2.03427 2.37409 2.01124 2.4483 2.0032 2.52483C1.99517 2.60137 2.00229 2.67874 2.02415 2.75252C2.04602 2.8263 2.08221 2.89506 2.13064 2.95486C3.37913 4.54621 4.88921 5.9136 6.59627 6.99852C7.80621 7.75635 9.14323 8.2891 10.5428 8.57105C11.3567 8.73437 12.1885 8.7905 13.0169 8.73802C12.8986 8.88981 12.7862 9.02338 12.683 9.13267L6.53252 15.438C6.13761 15.7874 5.82097 16.2162 5.60333 16.6965C5.3857 17.1767 5.27198 17.6976 5.26964 18.2248V18.2552C5.26948 18.4094 5.2786 18.5635 5.29696 18.7166C5.30304 19.2 5.14221 19.6707 4.84159 20.0493C4.40748 20.5533 3.6546 20.7992 2.60119 20.784C2.4458 20.784 2.29677 20.8457 2.18689 20.9556C2.07701 21.0655 2.01528 21.2145 2.01528 21.3699C2.01528 21.5253 2.07701 21.6743 2.18689 21.7842C2.29677 21.8941 2.4458 21.9558 2.60119 21.9558H2.71655C4.08265 21.9558 5.10571 21.5672 5.75233 20.8022C5.83832 20.7003 5.91743 20.5928 5.98912 20.4804C6.31844 20.9401 6.75209 21.3152 7.25448 21.5749C7.75687 21.8345 8.31367 21.9713 8.87918 21.974H14.3861L18.788 22.0135C18.8719 22.0121 18.9546 21.9932 19.0309 21.9582C19.1072 21.9232 19.1754 21.8728 19.2312 21.8101C19.2866 21.7457 19.3273 21.6699 19.3504 21.5881C19.3735 21.5063 19.3784 21.4204 19.3648 21.3365C19.2906 20.9035 19.0978 20.4995 18.8079 20.1694C18.518 19.8392 18.1422 19.5959 17.7224 19.4665C17.4994 19.3785 17.2687 19.3114 17.0333 19.2661V16.5339C17.2469 15.9953 17.3501 15.4192 17.3369 14.8399C17.3369 13.7774 17.1608 12.976 16.8177 12.4447L17.2367 10.4047L17.8651 9.92197C18.311 10.2877 18.87 10.4873 19.4467 10.4866C20.1325 10.477 20.7864 10.1958 21.265 9.70464C21.7437 9.21348 22.0079 8.55251 21.9998 7.86675C21.9979 7.72933 21.9475 7.597 21.8576 7.49313C21.7676 7.38925 21.6438 7.32052 21.508 7.29906ZM17.349 20.5593C17.517 20.6225 17.6746 20.7105 17.8165 20.8204L14.9234 20.784L14.6897 18.1429C14.6771 17.9997 14.6122 17.8661 14.5076 17.7676C14.4029 17.6691 14.2657 17.6125 14.122 17.6086C13.3459 17.5634 12.5757 17.7676 11.9241 18.1914C11.7311 17.3101 11.257 16.5153 10.5731 15.9267C10.4483 15.8342 10.2919 15.7949 10.1382 15.8177C9.98445 15.8405 9.84608 15.9234 9.75349 16.0482C9.66089 16.173 9.62167 16.3294 9.64444 16.4832C9.66722 16.6369 9.75012 16.7752 9.87492 16.8678C9.87492 16.8678 10.9465 17.7209 10.9071 19.6395C10.9066 19.7925 10.9638 19.94 11.0674 20.0525C11.171 20.1651 11.3132 20.2344 11.4657 20.2467C11.9055 20.2765 12.3405 20.3569 12.7619 20.4865C13.0011 20.5545 13.2291 20.6567 13.4389 20.7901H8.88525C8.29288 20.7796 7.72402 20.5564 7.28259 20.1613C6.84116 19.7661 6.55661 19.2253 6.48092 18.6377C6.47879 18.4987 6.46967 18.3599 6.45359 18.2218C6.45588 17.8586 6.53528 17.5 6.68652 17.1698C6.83777 16.8395 7.05741 16.5452 7.33093 16.3062L7.36736 16.2698L13.4966 9.94626C13.8159 9.5933 14.1081 9.21681 14.3709 8.81998L16.0649 10.2984L15.6186 12.4781C15.6014 12.5693 15.6053 12.6632 15.63 12.7527C15.6547 12.8422 15.6996 12.9248 15.7613 12.9942C15.8827 13.1247 16.162 13.5649 16.1681 14.8521C16.1803 15.3118 16.0923 15.7686 15.91 16.1909C15.8785 16.2648 15.862 16.3442 15.8615 16.4246V19.7913C15.8607 19.9454 15.9209 20.0935 16.029 20.2033C16.1371 20.3131 16.2842 20.3756 16.4383 20.3772C16.7494 20.3908 17.0566 20.4523 17.349 20.5593ZM13.6393 19.5697C13.4708 19.4907 13.2974 19.4228 13.1202 19.3663C12.9168 19.3025 12.7164 19.254 12.513 19.2145C12.8249 18.9865 13.1936 18.8489 13.5786 18.8168L13.6393 19.5697ZM19.4467 9.32392C19.2399 9.32289 19.036 9.27447 18.8507 9.18237C18.6655 9.09028 18.5038 8.95696 18.3781 8.79266C18.2829 8.67155 18.1438 8.59282 17.991 8.5735C17.8382 8.55418 17.6839 8.59583 17.5615 8.68944L16.7297 9.32392L15.0145 7.82728C15.8706 6.446 16.6447 4.98883 16.6963 4.89168C16.7241 4.83909 16.7446 4.7829 16.757 4.72472L16.7874 4.81579C16.8159 4.89177 16.8593 4.96128 16.9151 5.0202C16.9709 5.07912 17.0379 5.12626 17.1122 5.15883C17.8013 5.46241 18.3812 6.30636 18.5481 6.60994L18.5785 6.66154C19.1105 7.4327 19.8787 8.01014 20.7673 8.30694C20.6862 8.59614 20.5138 8.85138 20.2758 9.03465C20.0379 9.21791 19.7471 9.31938 19.4467 9.32392Z" fill="white"/>
<path d="M21.508 7.29906C20.7255 7.12777 20.033 6.67514 19.5621 6.02707C19.1432 5.2794 18.5389 4.65213 17.8074 4.2056L17.1608 2.3902C17.1204 2.2811 17.0485 2.18642 16.9543 2.11811C16.8601 2.0498 16.7478 2.01091 16.6316 2.00637C16.5153 2.00182 16.4003 2.03181 16.3011 2.09256C16.2018 2.15331 16.1228 2.24209 16.074 2.3477C15.7816 3.01936 15.6199 3.74056 15.5974 4.47275C15.3757 4.87954 14.635 6.23957 13.8821 7.42656C12.8453 7.64616 11.7739 7.64616 10.7371 7.42656C9.48283 7.1678 8.2857 6.68442 7.20343 5.99974C5.61146 4.98423 4.204 3.70509 3.04138 2.21716C2.99294 2.15736 2.9332 2.10769 2.86556 2.07098C2.79793 2.03427 2.72372 2.01124 2.64719 2.0032C2.57065 1.99517 2.49328 2.00229 2.4195 2.02415C2.34572 2.04602 2.27696 2.08221 2.21716 2.13064C2.15736 2.17908 2.10769 2.23882 2.07098 2.30646C2.03427 2.37409 2.01124 2.4483 2.0032 2.52483C1.99517 2.60137 2.00229 2.67874 2.02415 2.75252C2.04602 2.8263 2.08221 2.89506 2.13064 2.95486C3.37913 4.54621 4.88921 5.9136 6.59627 6.99852C7.80621 7.75635 9.14323 8.2891 10.5428 8.57105C11.3567 8.73437 12.1885 8.7905 13.0169 8.73802C12.8986 8.88981 12.7862 9.02338 12.683 9.13267L6.53252 15.438C6.13761 15.7874 5.82097 16.2162 5.60333 16.6965C5.3857 17.1767 5.27198 17.6976 5.26964 18.2248V18.2552C5.26948 18.4094 5.2786 18.5635 5.29696 18.7166C5.30304 19.2 5.14221 19.6707 4.84159 20.0493C4.40748 20.5533 3.6546 20.7992 2.60119 20.784C2.4458 20.784 2.29677 20.8457 2.18689 20.9556C2.07701 21.0655 2.01528 21.2145 2.01528 21.3699C2.01528 21.5253 2.07701 21.6743 2.18689 21.7842C2.29677 21.8941 2.4458 21.9558 2.60119 21.9558H2.71655C4.08265 21.9558 5.10571 21.5672 5.75233 20.8022C5.83832 20.7003 5.91743 20.5928 5.98912 20.4804C6.31844 20.9401 6.75209 21.3152 7.25448 21.5749C7.75687 21.8345 8.31367 21.9713 8.87918 21.974H14.3861L18.788 22.0135C18.8719 22.0121 18.9546 21.9932 19.0309 21.9582C19.1072 21.9232 19.1754 21.8728 19.2312 21.8101C19.2866 21.7457 19.3273 21.6699 19.3504 21.5881C19.3735 21.5063 19.3784 21.4204 19.3648 21.3365C19.2906 20.9035 19.0978 20.4995 18.8079 20.1694C18.518 19.8392 18.1422 19.5959 17.7224 19.4665C17.4994 19.3785 17.2687 19.3114 17.0333 19.2661V16.5339C17.2469 15.9953 17.3501 15.4192 17.3369 14.8399C17.3369 13.7774 17.1608 12.976 16.8177 12.4447L17.2367 10.4047L17.8651 9.92197C18.311 10.2877 18.87 10.4873 19.4467 10.4866C20.1325 10.477 20.7864 10.1958 21.265 9.70464C21.7437 9.21348 22.0079 8.55251 21.9998 7.86675C21.9979 7.72933 21.9475 7.597 21.8576 7.49313C21.7676 7.38925 21.6438 7.32052 21.508 7.29906ZM17.349 20.5593C17.517 20.6225 17.6746 20.7105 17.8165 20.8204L14.9234 20.784L14.6897 18.1429C14.6771 17.9997 14.6122 17.8661 14.5076 17.7676C14.4029 17.6691 14.2657 17.6125 14.122 17.6086C13.3459 17.5634 12.5757 17.7676 11.9241 18.1914C11.7311 17.3101 11.257 16.5153 10.5731 15.9267C10.4483 15.8342 10.2919 15.7949 10.1382 15.8177C9.98445 15.8405 9.84608 15.9234 9.75349 16.0482C9.66089 16.173 9.62167 16.3294 9.64444 16.4832C9.66722 16.6369 9.75012 16.7752 9.87492 16.8678C9.87492 16.8678 10.9465 17.7209 10.9071 19.6395C10.9066 19.7925 10.9638 19.94 11.0674 20.0525C11.171 20.1651 11.3132 20.2344 11.4657 20.2467C11.9055 20.2765 12.3405 20.3569 12.7619 20.4865C13.0011 20.5545 13.2291 20.6567 13.4389 20.7901H8.88525C8.29288 20.7796 7.72402 20.5564 7.28259 20.1613C6.84116 19.7661 6.55661 19.2253 6.48092 18.6377C6.47879 18.4987 6.46967 18.3599 6.45359 18.2218C6.45588 17.8586 6.53528 17.5 6.68652 17.1698C6.83777 16.8395 7.05741 16.5452 7.33093 16.3062L7.36736 16.2698L13.4966 9.94626C13.8159 9.5933 14.1081 9.21681 14.3709 8.81998L16.0649 10.2984L15.6186 12.4781C15.6014 12.5693 15.6053 12.6632 15.63 12.7527C15.6547 12.8422 15.6996 12.9248 15.7613 12.9942C15.8827 13.1247 16.162 13.5649 16.1681 14.8521C16.1803 15.3118 16.0923 15.7686 15.91 16.1909C15.8785 16.2648 15.862 16.3442 15.8615 16.4246V19.7913C15.8607 19.9454 15.9209 20.0935 16.029 20.2033C16.1371 20.3131 16.2842 20.3756 16.4383 20.3772C16.7494 20.3908 17.0566 20.4523 17.349 20.5593ZM13.6393 19.5697C13.4708 19.4907 13.2974 19.4228 13.1202 19.3663C12.9168 19.3025 12.7164 19.254 12.513 19.2145C12.8249 18.9865 13.1936 18.8489 13.5786 18.8168L13.6393 19.5697ZM19.4467 9.32392C19.2399 9.32289 19.036 9.27447 18.8507 9.18237C18.6655 9.09028 18.5038 8.95696 18.3781 8.79266C18.2829 8.67155 18.1438 8.59282 17.991 8.5735C17.8382 8.55418 17.6839 8.59583 17.5615 8.68944L16.7297 9.32392L15.0145 7.82728C15.8706 6.446 16.6447 4.98883 16.6963 4.89168C16.7241 4.83909 16.7446 4.7829 16.757 4.72472L16.7874 4.81579C16.8159 4.89177 16.8593 4.96128 16.9151 5.0202C16.9709 5.07912 17.0379 5.12626 17.1122 5.15883C17.8013 5.46241 18.3812 6.30636 18.5481 6.60994L18.5785 6.66154C19.1105 7.4327 19.8787 8.01014 20.7673 8.30694C20.6862 8.59614 20.5138 8.85138 20.2758 9.03465C20.0379 9.21791 19.7471 9.31938 19.4467 9.32392Z" stroke="white" stroke-width="0.4" mask="url(#path-2-outside-1_1313_2738)"/>
</svg>
