<svg width="25" height="24" viewBox="0 0 25 24" fill="none" xmlns="http://www.w3.org/2000/svg">
<path d="M9.35156 13.7035C6.35156 16.2035 6.85156 18.2035 6.85156 18.7035C7.35156 21.7034 11.3516 21.7037 12.8516 21.2037C14.3516 20.7037 17.3516 21.7037 18.8516 21.2037C20.3516 20.7037 18.8516 20.2037 17.8516 19.7037C16.8516 19.2037 16.8516 18.2037 16.8516 16.7037C16.8516 15.2037 16.3516 13.0073 16.8516 12.0074C17.3516 11.0075 17.3516 10.7037 17.8516 9.70368C18.3516 8.70368 19.8516 9.70368 21.3516 9.20368C22.5516 8.80368 22.1849 8.03701 21.8516 7.70368C21.3516 7.20363 19.7203 6.30732 19.3203 5.50732C18.8203 4.50732 17.3516 3.70354 16.8516 4.20354C16.3516 4.70354 12.3516 11.2035 9.35156 13.7035Z" fill="white"/>
<mask id="path-2-outside-1_1313_2798" maskUnits="userSpaceOnUse" x="1.5" y="1" width="22" height="22" fill="black">
<rect fill="white" x="1.5" y="1" width="22" height="22"/>
<path d="M22.008 7.29906C21.2255 7.12777 20.533 6.67514 20.0621 6.02707C19.6432 5.2794 19.0389 4.65213 18.3074 4.2056L17.6608 2.3902C17.6204 2.2811 17.5485 2.18642 17.4543 2.11811C17.3601 2.0498 17.2478 2.01091 17.1316 2.00637C17.0153 2.00182 16.9003 2.03181 16.8011 2.09256C16.7018 2.15331 16.6228 2.24209 16.574 2.3477C16.2816 3.01936 16.1199 3.74056 16.0974 4.47275C15.8757 4.87954 15.135 6.23957 14.3821 7.42656C13.3453 7.64616 12.2739 7.64616 11.2371 7.42656C9.98283 7.1678 8.7857 6.68442 7.70343 5.99974C6.11146 4.98423 4.704 3.70509 3.54138 2.21716C3.49294 2.15736 3.4332 2.10769 3.36556 2.07098C3.29793 2.03427 3.22372 2.01124 3.14719 2.0032C3.07065 1.99517 2.99328 2.00229 2.9195 2.02415C2.84572 2.04602 2.77696 2.08221 2.71716 2.13064C2.65736 2.17908 2.60769 2.23882 2.57098 2.30646C2.53427 2.37409 2.51124 2.4483 2.5032 2.52483C2.49517 2.60137 2.50229 2.67874 2.52415 2.75252C2.54602 2.8263 2.58221 2.89506 2.63064 2.95486C3.87913 4.54621 5.38921 5.9136 7.09627 6.99852C8.30621 7.75635 9.64323 8.2891 11.0428 8.57105C11.8567 8.73437 12.6885 8.7905 13.5169 8.73802C13.3986 8.88981 13.2862 9.02338 13.183 9.13267L7.03252 15.438C6.63761 15.7874 6.32097 16.2162 6.10333 16.6965C5.8857 17.1767 5.77198 17.6976 5.76964 18.2248V18.2552C5.76948 18.4094 5.7786 18.5635 5.79696 18.7166C5.80304 19.2 5.64221 19.6707 5.34159 20.0493C4.90748 20.5533 4.1546 20.7992 3.10119 20.784C2.9458 20.784 2.79677 20.8457 2.68689 20.9556C2.57701 21.0655 2.51528 21.2145 2.51528 21.3699C2.51528 21.5253 2.57701 21.6743 2.68689 21.7842C2.79677 21.8941 2.9458 21.9558 3.10119 21.9558H3.21655C4.58265 21.9558 5.60571 21.5672 6.25233 20.8022C6.33832 20.7003 6.41743 20.5928 6.48912 20.4804C6.81844 20.9401 7.25209 21.3152 7.75448 21.5749C8.25687 21.8345 8.81367 21.9713 9.37918 21.974H14.8861L19.288 22.0135C19.3719 22.0121 19.4546 21.9932 19.5309 21.9582C19.6072 21.9232 19.6754 21.8728 19.7312 21.8101C19.7866 21.7457 19.8273 21.6699 19.8504 21.5881C19.8735 21.5063 19.8784 21.4204 19.8648 21.3365C19.7906 20.9035 19.5978 20.4995 19.3079 20.1694C19.018 19.8392 18.6422 19.5959 18.2224 19.4665C17.9994 19.3785 17.7687 19.3114 17.5333 19.2661V16.5339C17.7469 15.9953 17.8501 15.4192 17.8369 14.8399C17.8369 13.7774 17.6608 12.976 17.3177 12.4447L17.7367 10.4047L18.3651 9.92197C18.811 10.2877 19.37 10.4873 19.9467 10.4866C20.6325 10.477 21.2864 10.1958 21.765 9.70464C22.2437 9.21348 22.5079 8.55251 22.4998 7.86675C22.4979 7.72933 22.4475 7.597 22.3576 7.49313C22.2676 7.38925 22.1438 7.32052 22.008 7.29906ZM17.849 20.5593C18.017 20.6225 18.1746 20.7105 18.3165 20.8204L15.4234 20.784L15.1897 18.1429C15.1771 17.9997 15.1122 17.8661 15.0076 17.7676C14.9029 17.6691 14.7657 17.6125 14.622 17.6086C13.8459 17.5634 13.0757 17.7676 12.4241 18.1914C12.2311 17.3101 11.757 16.5153 11.0731 15.9267C10.9483 15.8342 10.7919 15.7949 10.6382 15.8177C10.4844 15.8405 10.3461 15.9234 10.2535 16.0482C10.1609 16.173 10.1217 16.3294 10.1444 16.4832C10.1672 16.6369 10.2501 16.7752 10.3749 16.8678C10.3749 16.8678 11.4465 17.7209 11.4071 19.6395C11.4066 19.7925 11.4638 19.94 11.5674 20.0525C11.671 20.1651 11.8132 20.2344 11.9657 20.2467C12.4055 20.2765 12.8405 20.3569 13.2619 20.4865C13.5011 20.5545 13.7291 20.6567 13.9389 20.7901H9.38525C8.79288 20.7796 8.22402 20.5564 7.78259 20.1613C7.34116 19.7661 7.05661 19.2253 6.98092 18.6377C6.97879 18.4987 6.96967 18.3599 6.95359 18.2218C6.95588 17.8586 7.03528 17.5 7.18652 17.1698C7.33777 16.8395 7.55741 16.5452 7.83093 16.3062L7.86736 16.2698L13.9966 9.94626C14.3159 9.5933 14.6081 9.21681 14.8709 8.81998L16.5649 10.2984L16.1186 12.4781C16.1014 12.5693 16.1053 12.6632 16.13 12.7527C16.1547 12.8422 16.1996 12.9248 16.2613 12.9942C16.3827 13.1247 16.662 13.5649 16.6681 14.8521C16.6803 15.3118 16.5923 15.7686 16.41 16.1909C16.3785 16.2648 16.362 16.3442 16.3615 16.4246V19.7913C16.3607 19.9454 16.4209 20.0935 16.529 20.2033C16.6371 20.3131 16.7842 20.3756 16.9383 20.3772C17.2494 20.3908 17.5566 20.4523 17.849 20.5593ZM14.1393 19.5697C13.9708 19.4907 13.7974 19.4228 13.6202 19.3663C13.4168 19.3025 13.2164 19.254 13.013 19.2145C13.3249 18.9865 13.6936 18.8489 14.0786 18.8168L14.1393 19.5697ZM19.9467 9.32392C19.7399 9.32289 19.536 9.27447 19.3507 9.18237C19.1655 9.09028 19.0038 8.95696 18.8781 8.79266C18.7829 8.67155 18.6438 8.59282 18.491 8.5735C18.3382 8.55418 18.1839 8.59583 18.0615 8.68944L17.2297 9.32392L15.5145 7.82728C16.3706 6.446 17.1447 4.98883 17.1963 4.89168C17.2241 4.83909 17.2446 4.7829 17.257 4.72472L17.2874 4.81579C17.3159 4.89177 17.3593 4.96128 17.4151 5.0202C17.4709 5.07912 17.5379 5.12626 17.6122 5.15883C18.3013 5.46241 18.8812 6.30636 19.0481 6.60994L19.0785 6.66154C19.6105 7.4327 20.3787 8.01014 21.2673 8.30694C21.1862 8.59614 21.0138 8.85138 20.7758 9.03465C20.5379 9.21791 20.2471 9.31938 19.9467 9.32392Z"/>
</mask>
<path d="M22.008 7.29906C21.2255 7.12777 20.533 6.67514 20.0621 6.02707C19.6432 5.2794 19.0389 4.65213 18.3074 4.2056L17.6608 2.3902C17.6204 2.2811 17.5485 2.18642 17.4543 2.11811C17.3601 2.0498 17.2478 2.01091 17.1316 2.00637C17.0153 2.00182 16.9003 2.03181 16.8011 2.09256C16.7018 2.15331 16.6228 2.24209 16.574 2.3477C16.2816 3.01936 16.1199 3.74056 16.0974 4.47275C15.8757 4.87954 15.135 6.23957 14.3821 7.42656C13.3453 7.64616 12.2739 7.64616 11.2371 7.42656C9.98283 7.1678 8.7857 6.68442 7.70343 5.99974C6.11146 4.98423 4.704 3.70509 3.54138 2.21716C3.49294 2.15736 3.4332 2.10769 3.36556 2.07098C3.29793 2.03427 3.22372 2.01124 3.14719 2.0032C3.07065 1.99517 2.99328 2.00229 2.9195 2.02415C2.84572 2.04602 2.77696 2.08221 2.71716 2.13064C2.65736 2.17908 2.60769 2.23882 2.57098 2.30646C2.53427 2.37409 2.51124 2.4483 2.5032 2.52483C2.49517 2.60137 2.50229 2.67874 2.52415 2.75252C2.54602 2.8263 2.58221 2.89506 2.63064 2.95486C3.87913 4.54621 5.38921 5.9136 7.09627 6.99852C8.30621 7.75635 9.64323 8.2891 11.0428 8.57105C11.8567 8.73437 12.6885 8.7905 13.5169 8.73802C13.3986 8.88981 13.2862 9.02338 13.183 9.13267L7.03252 15.438C6.63761 15.7874 6.32097 16.2162 6.10333 16.6965C5.8857 17.1767 5.77198 17.6976 5.76964 18.2248V18.2552C5.76948 18.4094 5.7786 18.5635 5.79696 18.7166C5.80304 19.2 5.64221 19.6707 5.34159 20.0493C4.90748 20.5533 4.1546 20.7992 3.10119 20.784C2.9458 20.784 2.79677 20.8457 2.68689 20.9556C2.57701 21.0655 2.51528 21.2145 2.51528 21.3699C2.51528 21.5253 2.57701 21.6743 2.68689 21.7842C2.79677 21.8941 2.9458 21.9558 3.10119 21.9558H3.21655C4.58265 21.9558 5.60571 21.5672 6.25233 20.8022C6.33832 20.7003 6.41743 20.5928 6.48912 20.4804C6.81844 20.9401 7.25209 21.3152 7.75448 21.5749C8.25687 21.8345 8.81367 21.9713 9.37918 21.974H14.8861L19.288 22.0135C19.3719 22.0121 19.4546 21.9932 19.5309 21.9582C19.6072 21.9232 19.6754 21.8728 19.7312 21.8101C19.7866 21.7457 19.8273 21.6699 19.8504 21.5881C19.8735 21.5063 19.8784 21.4204 19.8648 21.3365C19.7906 20.9035 19.5978 20.4995 19.3079 20.1694C19.018 19.8392 18.6422 19.5959 18.2224 19.4665C17.9994 19.3785 17.7687 19.3114 17.5333 19.2661V16.5339C17.7469 15.9953 17.8501 15.4192 17.8369 14.8399C17.8369 13.7774 17.6608 12.976 17.3177 12.4447L17.7367 10.4047L18.3651 9.92197C18.811 10.2877 19.37 10.4873 19.9467 10.4866C20.6325 10.477 21.2864 10.1958 21.765 9.70464C22.2437 9.21348 22.5079 8.55251 22.4998 7.86675C22.4979 7.72933 22.4475 7.597 22.3576 7.49313C22.2676 7.38925 22.1438 7.32052 22.008 7.29906ZM17.849 20.5593C18.017 20.6225 18.1746 20.7105 18.3165 20.8204L15.4234 20.784L15.1897 18.1429C15.1771 17.9997 15.1122 17.8661 15.0076 17.7676C14.9029 17.6691 14.7657 17.6125 14.622 17.6086C13.8459 17.5634 13.0757 17.7676 12.4241 18.1914C12.2311 17.3101 11.757 16.5153 11.0731 15.9267C10.9483 15.8342 10.7919 15.7949 10.6382 15.8177C10.4844 15.8405 10.3461 15.9234 10.2535 16.0482C10.1609 16.173 10.1217 16.3294 10.1444 16.4832C10.1672 16.6369 10.2501 16.7752 10.3749 16.8678C10.3749 16.8678 11.4465 17.7209 11.4071 19.6395C11.4066 19.7925 11.4638 19.94 11.5674 20.0525C11.671 20.1651 11.8132 20.2344 11.9657 20.2467C12.4055 20.2765 12.8405 20.3569 13.2619 20.4865C13.5011 20.5545 13.7291 20.6567 13.9389 20.7901H9.38525C8.79288 20.7796 8.22402 20.5564 7.78259 20.1613C7.34116 19.7661 7.05661 19.2253 6.98092 18.6377C6.97879 18.4987 6.96967 18.3599 6.95359 18.2218C6.95588 17.8586 7.03528 17.5 7.18652 17.1698C7.33777 16.8395 7.55741 16.5452 7.83093 16.3062L7.86736 16.2698L13.9966 9.94626C14.3159 9.5933 14.6081 9.21681 14.8709 8.81998L16.5649 10.2984L16.1186 12.4781C16.1014 12.5693 16.1053 12.6632 16.13 12.7527C16.1547 12.8422 16.1996 12.9248 16.2613 12.9942C16.3827 13.1247 16.662 13.5649 16.6681 14.8521C16.6803 15.3118 16.5923 15.7686 16.41 16.1909C16.3785 16.2648 16.362 16.3442 16.3615 16.4246V19.7913C16.3607 19.9454 16.4209 20.0935 16.529 20.2033C16.6371 20.3131 16.7842 20.3756 16.9383 20.3772C17.2494 20.3908 17.5566 20.4523 17.849 20.5593ZM14.1393 19.5697C13.9708 19.4907 13.7974 19.4228 13.6202 19.3663C13.4168 19.3025 13.2164 19.254 13.013 19.2145C13.3249 18.9865 13.6936 18.8489 14.0786 18.8168L14.1393 19.5697ZM19.9467 9.32392C19.7399 9.32289 19.536 9.27447 19.3507 9.18237C19.1655 9.09028 19.0038 8.95696 18.8781 8.79266C18.7829 8.67155 18.6438 8.59282 18.491 8.5735C18.3382 8.55418 18.1839 8.59583 18.0615 8.68944L17.2297 9.32392L15.5145 7.82728C16.3706 6.446 17.1447 4.98883 17.1963 4.89168C17.2241 4.83909 17.2446 4.7829 17.257 4.72472L17.2874 4.81579C17.3159 4.89177 17.3593 4.96128 17.4151 5.0202C17.4709 5.07912 17.5379 5.12626 17.6122 5.15883C18.3013 5.46241 18.8812 6.30636 19.0481 6.60994L19.0785 6.66154C19.6105 7.4327 20.3787 8.01014 21.2673 8.30694C21.1862 8.59614 21.0138 8.85138 20.7758 9.03465C20.5379 9.21791 20.2471 9.31938 19.9467 9.32392Z" fill="#828282"/>
<path d="M22.008 7.29906C21.2255 7.12777 20.533 6.67514 20.0621 6.02707C19.6432 5.2794 19.0389 4.65213 18.3074 4.2056L17.6608 2.3902C17.6204 2.2811 17.5485 2.18642 17.4543 2.11811C17.3601 2.0498 17.2478 2.01091 17.1316 2.00637C17.0153 2.00182 16.9003 2.03181 16.8011 2.09256C16.7018 2.15331 16.6228 2.24209 16.574 2.3477C16.2816 3.01936 16.1199 3.74056 16.0974 4.47275C15.8757 4.87954 15.135 6.23957 14.3821 7.42656C13.3453 7.64616 12.2739 7.64616 11.2371 7.42656C9.98283 7.1678 8.7857 6.68442 7.70343 5.99974C6.11146 4.98423 4.704 3.70509 3.54138 2.21716C3.49294 2.15736 3.4332 2.10769 3.36556 2.07098C3.29793 2.03427 3.22372 2.01124 3.14719 2.0032C3.07065 1.99517 2.99328 2.00229 2.9195 2.02415C2.84572 2.04602 2.77696 2.08221 2.71716 2.13064C2.65736 2.17908 2.60769 2.23882 2.57098 2.30646C2.53427 2.37409 2.51124 2.4483 2.5032 2.52483C2.49517 2.60137 2.50229 2.67874 2.52415 2.75252C2.54602 2.8263 2.58221 2.89506 2.63064 2.95486C3.87913 4.54621 5.38921 5.9136 7.09627 6.99852C8.30621 7.75635 9.64323 8.2891 11.0428 8.57105C11.8567 8.73437 12.6885 8.7905 13.5169 8.73802C13.3986 8.88981 13.2862 9.02338 13.183 9.13267L7.03252 15.438C6.63761 15.7874 6.32097 16.2162 6.10333 16.6965C5.8857 17.1767 5.77198 17.6976 5.76964 18.2248V18.2552C5.76948 18.4094 5.7786 18.5635 5.79696 18.7166C5.80304 19.2 5.64221 19.6707 5.34159 20.0493C4.90748 20.5533 4.1546 20.7992 3.10119 20.784C2.9458 20.784 2.79677 20.8457 2.68689 20.9556C2.57701 21.0655 2.51528 21.2145 2.51528 21.3699C2.51528 21.5253 2.57701 21.6743 2.68689 21.7842C2.79677 21.8941 2.9458 21.9558 3.10119 21.9558H3.21655C4.58265 21.9558 5.60571 21.5672 6.25233 20.8022C6.33832 20.7003 6.41743 20.5928 6.48912 20.4804C6.81844 20.9401 7.25209 21.3152 7.75448 21.5749C8.25687 21.8345 8.81367 21.9713 9.37918 21.974H14.8861L19.288 22.0135C19.3719 22.0121 19.4546 21.9932 19.5309 21.9582C19.6072 21.9232 19.6754 21.8728 19.7312 21.8101C19.7866 21.7457 19.8273 21.6699 19.8504 21.5881C19.8735 21.5063 19.8784 21.4204 19.8648 21.3365C19.7906 20.9035 19.5978 20.4995 19.3079 20.1694C19.018 19.8392 18.6422 19.5959 18.2224 19.4665C17.9994 19.3785 17.7687 19.3114 17.5333 19.2661V16.5339C17.7469 15.9953 17.8501 15.4192 17.8369 14.8399C17.8369 13.7774 17.6608 12.976 17.3177 12.4447L17.7367 10.4047L18.3651 9.92197C18.811 10.2877 19.37 10.4873 19.9467 10.4866C20.6325 10.477 21.2864 10.1958 21.765 9.70464C22.2437 9.21348 22.5079 8.55251 22.4998 7.86675C22.4979 7.72933 22.4475 7.597 22.3576 7.49313C22.2676 7.38925 22.1438 7.32052 22.008 7.29906ZM17.849 20.5593C18.017 20.6225 18.1746 20.7105 18.3165 20.8204L15.4234 20.784L15.1897 18.1429C15.1771 17.9997 15.1122 17.8661 15.0076 17.7676C14.9029 17.6691 14.7657 17.6125 14.622 17.6086C13.8459 17.5634 13.0757 17.7676 12.4241 18.1914C12.2311 17.3101 11.757 16.5153 11.0731 15.9267C10.9483 15.8342 10.7919 15.7949 10.6382 15.8177C10.4844 15.8405 10.3461 15.9234 10.2535 16.0482C10.1609 16.173 10.1217 16.3294 10.1444 16.4832C10.1672 16.6369 10.2501 16.7752 10.3749 16.8678C10.3749 16.8678 11.4465 17.7209 11.4071 19.6395C11.4066 19.7925 11.4638 19.94 11.5674 20.0525C11.671 20.1651 11.8132 20.2344 11.9657 20.2467C12.4055 20.2765 12.8405 20.3569 13.2619 20.4865C13.5011 20.5545 13.7291 20.6567 13.9389 20.7901H9.38525C8.79288 20.7796 8.22402 20.5564 7.78259 20.1613C7.34116 19.7661 7.05661 19.2253 6.98092 18.6377C6.97879 18.4987 6.96967 18.3599 6.95359 18.2218C6.95588 17.8586 7.03528 17.5 7.18652 17.1698C7.33777 16.8395 7.55741 16.5452 7.83093 16.3062L7.86736 16.2698L13.9966 9.94626C14.3159 9.5933 14.6081 9.21681 14.8709 8.81998L16.5649 10.2984L16.1186 12.4781C16.1014 12.5693 16.1053 12.6632 16.13 12.7527C16.1547 12.8422 16.1996 12.9248 16.2613 12.9942C16.3827 13.1247 16.662 13.5649 16.6681 14.8521C16.6803 15.3118 16.5923 15.7686 16.41 16.1909C16.3785 16.2648 16.362 16.3442 16.3615 16.4246V19.7913C16.3607 19.9454 16.4209 20.0935 16.529 20.2033C16.6371 20.3131 16.7842 20.3756 16.9383 20.3772C17.2494 20.3908 17.5566 20.4523 17.849 20.5593ZM14.1393 19.5697C13.9708 19.4907 13.7974 19.4228 13.6202 19.3663C13.4168 19.3025 13.2164 19.254 13.013 19.2145C13.3249 18.9865 13.6936 18.8489 14.0786 18.8168L14.1393 19.5697ZM19.9467 9.32392C19.7399 9.32289 19.536 9.27447 19.3507 9.18237C19.1655 9.09028 19.0038 8.95696 18.8781 8.79266C18.7829 8.67155 18.6438 8.59282 18.491 8.5735C18.3382 8.55418 18.1839 8.59583 18.0615 8.68944L17.2297 9.32392L15.5145 7.82728C16.3706 6.446 17.1447 4.98883 17.1963 4.89168C17.2241 4.83909 17.2446 4.7829 17.257 4.72472L17.2874 4.81579C17.3159 4.89177 17.3593 4.96128 17.4151 5.0202C17.4709 5.07912 17.5379 5.12626 17.6122 5.15883C18.3013 5.46241 18.8812 6.30636 19.0481 6.60994L19.0785 6.66154C19.6105 7.4327 20.3787 8.01014 21.2673 8.30694C21.1862 8.59614 21.0138 8.85138 20.7758 9.03465C20.5379 9.21791 20.2471 9.31938 19.9467 9.32392Z" stroke="#828282" stroke-width="0.4" mask="url(#path-2-outside-1_1313_2798)"/>
</svg>
