<svg width="18" height="19" viewBox="0 0 18 19" fill="none" xmlns="http://www.w3.org/2000/svg">
<g clip-path="url(#clip0_1503_3028)">
<path opacity="0.3" d="M9 3.5C5.6925 3.5 3 6.1925 3 9.5C3 12.8075 5.6925 15.5 9 15.5C12.3075 15.5 15 12.8075 15 9.5C15 6.1925 12.3075 3.5 9 3.5ZM12.75 10.25H9.75V13.25H8.25V10.25H5.25V8.75H8.25V5.75H9.75V8.75H12.75V10.25Z" fill="#406060"/>
<path d="M9.75 5.75H8.25V8.75H5.25V10.25H8.25V13.25H9.75V10.25H12.75V8.75H9.75V5.75ZM9 2C4.86 2 1.5 5.36 1.5 9.5C1.5 13.64 4.86 17 9 17C13.14 17 16.5 13.64 16.5 9.5C16.5 5.36 13.14 2 9 2ZM9 15.5C5.6925 15.5 3 12.8075 3 9.5C3 6.1925 5.6925 3.5 9 3.5C12.3075 3.5 15 6.1925 15 9.5C15 12.8075 12.3075 15.5 9 15.5Z" fill="#406060"/>
</g>
<defs>
<clipPath id="clip0_1503_3028">
<rect width="18" height="18" fill="white" transform="translate(0 0.5)"/>
</clipPath>
</defs>
</svg>
