<svg width="21" height="21" viewBox="0 0 21 21" fill="none" xmlns="http://www.w3.org/2000/svg">
<path d="M6.72461 11.6528C3.72461 14.1528 4.22461 16.1528 4.22461 16.6528C4.72461 19.6526 8.72461 19.6529 10.2246 19.1529C11.7246 18.6529 14.7246 19.6529 16.2246 19.1529C17.7246 18.6529 16.2246 18.1529 15.2246 17.6529C14.2246 17.1529 14.2246 16.1529 14.2246 14.6529C14.2246 13.1529 14.1934 10.9999 14.6934 10C15.1934 9.00014 14.7246 8.6529 15.2246 7.6529C15.7246 6.6529 17.2246 7.6529 18.7246 7.1529C19.9246 6.7529 19.5579 5.98623 19.2246 5.6529C18.7246 5.15285 17.0934 4.25654 16.6934 3.45654C16.1934 2.45654 14.7246 1.65276 14.2246 2.15276C13.7246 2.65276 9.72461 9.15276 6.72461 11.6528Z" fill="#406060" fill-opacity="0.3"/>
<path d="M16.8824 20.0075L12.5476 19.9776H7.13652C6.03039 19.9776 4.98405 19.4694 4.29646 18.6024C4.26656 18.6622 4.20677 18.722 4.17688 18.7519C3.51918 19.5291 2.47284 19.9477 1.06776 19.9477H0.948177C0.559537 19.9477 0.230688 19.6188 0.230688 19.2302C0.230688 18.8416 0.559537 18.5127 0.948177 18.5127C1.93472 18.5127 2.65221 18.3034 3.04085 17.855C3.30991 17.5262 3.45939 17.0777 3.45939 16.6293C3.42949 16.4798 3.42949 16.3303 3.42949 16.1809V16.151C3.42949 15.0448 3.90782 14.0284 4.71499 13.281L10.7539 7.09268C10.7838 7.06278 10.8136 7.00299 10.8734 6.97309C10.1559 7.00299 9.43846 6.9432 8.72097 6.79372C7.31589 6.52466 6.00049 5.98655 4.77478 5.23916C3.10064 4.13303 1.60587 2.78774 0.350269 1.20329C0.111107 0.904335 0.141002 0.426009 0.469851 0.186846C0.619328 0.0373692 0.7987 -0.0224215 1.00797 0.00747384C1.18734 0.0373692 1.36671 0.127055 1.48629 0.276532C2.62232 1.74141 3.9975 2.96711 5.55206 3.98356C6.5984 4.64126 7.76432 5.11958 8.99003 5.35874C9.97658 5.56801 10.9631 5.56801 11.9497 5.35874C12.6672 4.22272 13.3548 2.99701 13.5939 2.54858C13.6238 1.83109 13.7733 1.1136 14.0722 0.426009C14.1619 0.246637 14.3114 0.127055 14.4908 0.0373692C14.6701 -0.0224215 14.8495 0.00747384 15.0289 0.0672646C15.2083 0.156951 15.3278 0.306427 15.4175 0.4858L16.0453 2.21973C16.7628 2.66816 17.3607 3.29596 17.7793 4.04335C18.1978 4.64126 18.8555 5.05979 19.6029 5.20927C19.9616 5.26906 20.2008 5.56801 20.2008 5.92676C20.2307 7.42152 19.0349 8.64723 17.5401 8.64723C16.9721 8.64723 16.434 8.46786 15.9855 8.13901L15.5072 8.49776L15.1186 10.3812C15.4474 10.9193 15.6268 11.7265 15.6268 12.7728C15.6268 13.3408 15.5371 13.9387 15.3278 14.4768V17.0478C15.5371 17.1076 15.7165 17.1674 15.9258 17.2272C16.8226 17.4963 17.4803 18.2436 17.6298 19.1704C17.6597 19.3797 17.5999 19.5889 17.4504 19.7683C17.3009 19.9178 17.0917 20.0075 16.8824 20.0075ZM13.2053 18.5127L15.298 18.5426C15.0588 18.4529 14.8196 18.423 14.5506 18.423C14.1619 18.423 13.8331 18.0942 13.8331 17.7055V14.3572C13.8331 14.2676 13.863 14.148 13.8929 14.0583C14.0722 13.6697 14.132 13.2212 14.132 12.8027C14.132 11.5471 13.863 11.1584 13.7733 11.0688C13.6238 10.8894 13.564 10.6502 13.5939 10.441L14.0125 8.37818L12.5476 7.09268C12.3084 7.45142 12.0394 7.78027 11.7703 8.07922L5.70154 14.3572C5.19332 14.8057 4.89436 15.4634 4.89436 16.151C4.92426 16.2706 4.92426 16.42 4.92426 16.5695C5.07374 17.6756 6.03039 18.5127 7.13652 18.5426H10.9332C10.9332 18.5426 10.9332 18.5426 10.9033 18.5426C10.4848 18.423 10.0663 18.3333 9.64773 18.3034C9.25909 18.2735 8.96013 17.9447 8.96013 17.5561C8.99003 15.7623 8.00348 14.9552 8.00348 14.9552C7.85401 14.8356 7.76432 14.6861 7.73443 14.4768C7.70453 14.2975 7.76432 14.0882 7.8839 13.9387C8.00348 13.7892 8.18286 13.6697 8.36223 13.6398C8.5416 13.6099 8.75087 13.6697 8.90034 13.7892C9.55804 14.3572 10.0065 15.1046 10.2456 15.9118C10.8734 15.5531 11.5909 15.3737 12.3084 15.4335C12.6672 15.4335 12.9661 15.7324 12.996 16.0912L13.2053 18.5127ZM11.1126 17.0478C11.2023 17.0777 11.292 17.1076 11.3518 17.1076C11.4415 17.1375 11.561 17.1674 11.6507 17.2272L11.6208 16.8984C11.4415 16.9283 11.2621 16.9581 11.1126 17.0478ZM16.0154 6.46487C16.2247 6.46487 16.434 6.55456 16.5835 6.73393C16.7927 7.03288 17.1515 7.21226 17.5102 7.21226C17.9885 7.21226 18.437 6.88341 18.6163 6.46487C17.7793 6.16592 17.0319 5.56801 16.5237 4.85052L16.4938 4.79073C16.3443 4.52167 15.7763 3.7145 15.1485 3.41555C15.0289 3.35575 14.9392 3.29596 14.8794 3.20628C14.6701 3.59492 14.0423 4.76084 13.3548 5.86697L14.8495 7.18236L15.567 6.64425C15.7165 6.52466 15.866 6.46487 16.0154 6.46487Z" fill="#333333"/>
</svg>
