<svg width="24" height="24" viewBox="0 0 24 24" fill="none" xmlns="http://www.w3.org/2000/svg">
<g clip-path="url(#clip0_1559_1526)">
<path opacity="0.3" d="M11.9997 6.5C8.20969 6.5 4.82969 8.63 3.17969 12C4.82969 15.37 8.19969 17.5 11.9997 17.5C15.7997 17.5 19.1697 15.37 20.8197 12C19.1697 8.63 15.7897 6.5 11.9997 6.5ZM11.9997 16.5C9.51969 16.5 7.49969 14.48 7.49969 12C7.49969 9.52 9.51969 7.5 11.9997 7.5C14.4797 7.5 16.4997 9.52 16.4997 12C16.4997 14.48 14.4797 16.5 11.9997 16.5Z" fill="#333333"/>
<path d="M12 4.5C7 4.5 2.73 7.61 1 12C2.73 16.39 7 19.5 12 19.5C17 19.5 21.27 16.39 23 12C21.27 7.61 17 4.5 12 4.5ZM12 17.5C8.21 17.5 4.83 15.37 3.18 12C4.83 8.63 8.21 6.5 12 6.5C15.79 6.5 19.17 8.63 20.82 12C19.17 15.37 15.79 17.5 12 17.5ZM12 7.5C9.52 7.5 7.5 9.52 7.5 12C7.5 14.48 9.52 16.5 12 16.5C14.48 16.5 16.5 14.48 16.5 12C16.5 9.52 14.48 7.5 12 7.5ZM12 14.5C10.62 14.5 9.5 13.38 9.5 12C9.5 10.62 10.62 9.5 12 9.5C13.38 9.5 14.5 10.62 14.5 12C14.5 13.38 13.38 14.5 12 14.5Z" fill="#323232"/>
</g>
<defs>
<clipPath id="clip0_1559_1526">
<rect width="24" height="24" fill="white"/>
</clipPath>
</defs>
</svg>
