<svg width="25" height="25" viewBox="0 0 25 25" fill="none" xmlns="http://www.w3.org/2000/svg">
<g clip-path="url(#clip0_1431_5266)">
<path opacity="0.3" d="M12.1128 4.5C7.66108 4.5 4.03711 8.09 4.03711 12.5C4.03711 16.91 7.66108 20.5 12.1128 20.5C16.5646 20.5 20.1885 16.91 20.1885 12.5C20.1885 8.09 16.5646 4.5 12.1128 4.5ZM13.3545 17.83V19.5H11.0024V17.81C9.48821 17.5 8.20619 16.53 8.11534 14.84H9.84152C9.93238 15.76 10.5683 16.48 12.1835 16.48C13.9097 16.48 14.3034 15.62 14.3034 15.09C14.3034 14.36 13.9097 13.68 11.9412 13.22C9.75067 12.69 8.24657 11.8 8.24657 10.01C8.24657 8.5 9.47812 7.53 10.9923 7.2V5.5H13.3545V7.21C14.9999 7.6 15.8175 8.84 15.868 10.18H14.1418C14.1015 9.21 13.5765 8.54 12.1835 8.54C10.8611 8.54 10.0636 9.13 10.0636 9.97C10.0636 10.7 10.639 11.19 12.4258 11.64C14.2125 12.1 16.1204 12.86 16.1204 15.06C16.1103 16.66 14.8989 17.54 13.3545 17.83Z" fill="#406060"/>
<path d="M12.1142 2.5C6.54193 2.5 2.01953 6.98 2.01953 12.5C2.01953 18.02 6.54193 22.5 12.1142 22.5C17.6864 22.5 22.2088 18.02 22.2088 12.5C22.2088 6.98 17.6864 2.5 12.1142 2.5ZM12.1142 20.5C7.66243 20.5 4.03846 16.91 4.03846 12.5C4.03846 8.09 7.66243 4.5 12.1142 4.5C16.5659 4.5 20.1899 8.09 20.1899 12.5C20.1899 16.91 16.5659 20.5 12.1142 20.5ZM12.4271 11.64C10.6404 11.19 10.065 10.7 10.065 9.97C10.065 9.13 10.8624 8.54 12.1848 8.54C13.5779 8.54 14.1028 9.2 14.1432 10.18H15.8694C15.8189 8.84 14.9911 7.61 13.3558 7.21V5.5H11.0038V7.19C9.47947 7.51 8.25802 8.49 8.25802 10C8.25802 11.79 9.76212 12.69 11.9527 13.21C13.9211 13.67 14.3148 14.36 14.3148 15.08C14.3148 15.61 13.9211 16.47 12.1949 16.47C10.5798 16.47 9.94382 15.75 9.85297 14.83H8.11669C8.21764 16.53 9.48956 17.49 11.0038 17.8V19.5H13.3659V17.83C14.9003 17.54 16.1116 16.67 16.1217 15.06C16.1116 12.86 14.2038 12.1 12.4271 11.64Z" fill="#406060"/>
</g>
<defs>
<clipPath id="clip0_1431_5266">
<rect width="24.2271" height="24" fill="white" transform="translate(0 0.5)"/>
</clipPath>
</defs>
</svg>
