<svg width="139" height="174" viewBox="0 0 139 174" fill="none" xmlns="http://www.w3.org/2000/svg">
<g clip-path="url(#clip0_948_9104)">
<path d="M108.254 124.533C107.17 124.533 106.111 124.533 105.113 124.627L105.616 129.526C105.223 129.526 96.9326 129 96.9326 129L97.1917 125.86C93.5017 126.873 91.1621 128.388 91.1621 130.076C91.1621 133.13 98.8326 135.611 108.285 135.611C117.738 135.611 125.401 133.13 125.401 130.076C125.401 127.022 117.707 124.533 108.254 124.533Z" fill="#BAD6D1"/>
<path d="M46.4666 168.68C66.8719 168.68 83.4136 164.325 83.4136 158.953C83.4136 153.58 66.8719 149.225 46.4666 149.225C26.0613 149.225 9.51953 153.58 9.51953 158.953C9.51953 164.325 26.0613 168.68 46.4666 168.68Z" fill="#BAD6D1"/>
<path d="M87.2288 173.1C103.081 173.1 115.932 166.766 115.932 158.952C115.932 151.139 103.081 144.805 87.2288 144.805C71.3764 144.805 58.5254 151.139 58.5254 158.952C58.5254 166.766 71.3764 173.1 87.2288 173.1Z" fill="#BAD6D1"/>
<path d="M57.3868 132.141C66.8393 132.141 74.5021 129.663 74.5021 126.606C74.5021 123.549 66.8393 121.071 57.3868 121.071C47.9343 121.071 40.2715 123.549 40.2715 126.606C40.2715 129.663 47.9343 132.141 57.3868 132.141Z" fill="#BAD6D1"/>
<path d="M106.158 38.1952C105.986 37.8419 98.8177 31.7337 89.7968 30.4069C80.7759 29.0801 71.1348 32.087 71.1348 32.087C71.1348 32.087 60.6537 35.7299 57.4269 41.7909C55.5505 45.2768 54.789 48.6214 55.4327 53.6696C55.5178 55.0161 55.8146 56.3409 56.3121 57.5951C56.3121 57.5951 43.0045 66.0585 37.7993 70.4787C32.594 74.8988 23.9029 77.7252 18.3287 76.5789C12.7544 75.4327 7.96528 75.6761 5.8612 76.838C3.75711 78 3.73356 79.2954 3.73356 79.2954C3.73356 79.2954 3.73356 81.423 4.18107 82.0433C4.62858 82.6635 1.0799 82.4829 0.907181 85.1366C0.734458 87.7903 3.91413 89.5018 3.91413 89.5018C3.91413 89.5018 1.0799 90.2869 1.26048 92.5087C1.44105 94.7306 6.21449 99.0565 14.4424 98.7896C22.6703 98.5226 24.6959 97.1095 24.6959 97.1095L58.4004 97.816C58.4004 97.816 75.8219 105.863 77.3293 126.205C78.8367 146.548 79.0958 146.022 78.295 149.759C77.4942 153.496 76.4422 155.066 79.4491 156.212C82.4561 157.358 92.0108 160.193 98.5507 158.513C105.091 156.832 105.538 153.912 104.046 151.973C102.555 150.033 99.6263 149.052 99.5321 142.771C99.4379 136.49 102.453 104.913 103.599 99.5197C104.745 94.1261 104.926 86.6911 103.96 83.3309L102.963 79.9392C106.857 78.233 110.186 75.4573 112.566 71.9344C114.945 68.4114 116.276 64.2859 116.404 60.0368C116.954 48.1032 106.158 38.1952 106.158 38.1952Z" fill="#406060"/>
<path d="M106.693 106.083C105.547 104.992 103.843 119.917 103.552 123.277C103.391 125.31 103.391 127.352 103.552 129.385C103.552 129.385 116.075 131.057 112.33 123.104C109.904 117.946 108.883 115.936 107.478 110.103C107.131 108.781 106.869 107.439 106.693 106.083Z" fill="#406060"/>
<path d="M64.0616 106.084C64.0616 106.084 63.881 104.757 61.3137 103.344C58.7464 101.93 57.5138 101.396 57.5138 101.396H52.6462C52.6462 101.396 50.7933 110.339 49.1995 114.421C47.6058 118.504 46.6322 122.838 47.0798 124.871C47.5273 126.905 51.0602 128.059 56.1006 127.792C61.141 127.525 63.0881 124.698 63.0881 124.698C62.84 120.995 62.8086 117.28 62.9938 113.573C63.0765 111.045 63.4346 108.534 64.0616 106.084Z" fill="#406060"/>
<path d="M107.453 41.7673C107.681 41.257 113.993 33.4374 128.753 30.1792C135.191 28.766 137.13 30.3755 138.732 32.299C140.334 34.2225 134.579 48.2131 126.445 56.0406C118.311 63.868 115.532 65.1007 107.83 63.1065C100.128 61.1123 107.453 41.7673 107.453 41.7673Z" fill="#406060"/>
<path d="M83.9471 30.8152C84.2297 30.3284 86.797 20.6088 80.681 6.78313C78.0195 0.784922 75.57 0.148986 73.0655 -0.000183862C70.561 -0.149354 62.7021 12.7578 61.2026 23.9534C59.703 35.149 60.3625 38.0853 66.502 43.1571C72.6416 48.2288 83.9471 30.8152 83.9471 30.8152Z" fill="#406060"/>
</g>
<defs>
<clipPath id="clip0_948_9104">
<rect width="138.1" height="173.1" fill="white" transform="translate(0.900391)"/>
</clipPath>
</defs>
</svg>
