<svg width="375" height="667" viewBox="0 0 375 667" fill="none" xmlns="http://www.w3.org/2000/svg">
<rect width="375" height="667" fill="#FAFAFA"/>
<g clip-path="url(#clip0_948_9116)">
<path d="M81.919 280.651C84.2307 281.959 86.1397 283.875 87.4393 286.19C88.7833 288.582 89.472 291.287 89.436 294.03C89.471 296.756 88.8336 299.448 87.5802 301.87C86.4124 304.136 84.6479 306.041 82.4769 307.38C80.3023 308.714 77.7937 309.406 75.2419 309.375C73.1914 309.392 71.1637 308.945 69.3099 308.069C67.4562 307.194 65.8243 305.911 64.5361 304.317V319.28C64.5534 319.657 64.4936 320.034 64.3603 320.387C64.227 320.74 64.0231 321.062 63.7609 321.334C63.4897 321.595 63.1681 321.799 62.8158 321.932C62.4635 322.065 62.0877 322.125 61.7114 322.109C61.339 322.121 60.968 322.059 60.6201 321.926C60.2721 321.793 59.9543 321.592 59.6853 321.334C59.4178 321.069 59.2082 320.751 59.0697 320.4C58.9312 320.05 58.8669 319.674 58.8807 319.298V294.03C58.855 291.28 59.5646 288.574 60.9362 286.19C62.2373 283.888 64.1311 281.975 66.4212 280.651C68.7714 279.291 71.4458 278.592 74.1613 278.626C76.8812 278.601 79.5587 279.3 81.919 280.651ZM79.1413 303.032C80.6342 302.133 81.8605 300.852 82.6942 299.323C83.5699 297.702 84.0167 295.884 83.9921 294.042C84.0167 292.186 83.5702 290.355 82.6942 288.719C81.8709 287.167 80.6434 285.865 79.1413 284.952C77.6277 284.044 75.8912 283.575 74.1261 283.596C72.3695 283.575 70.6413 284.041 69.1346 284.943C67.6278 285.846 66.4017 287.149 65.5931 288.708C64.7283 290.347 64.2882 292.177 64.3129 294.03C64.288 295.87 64.7284 297.686 65.5931 299.311C66.4135 300.858 67.6442 302.149 69.1504 303.044C70.6566 303.938 72.38 304.401 74.1319 304.381C75.8949 304.406 77.6299 303.939 79.1413 303.032Z" fill="#406060" stroke="#406060" stroke-width="2.02007" stroke-linecap="round" stroke-linejoin="round"/>
<path d="M119.35 280.651C121.641 281.977 123.536 283.889 124.841 286.19C126.198 288.578 126.895 291.284 126.861 294.03V306.353C126.879 306.735 126.819 307.116 126.684 307.474C126.55 307.832 126.345 308.159 126.08 308.436C125.816 308.712 125.499 308.932 125.147 309.082C124.795 309.233 124.416 309.31 124.034 309.31C123.651 309.31 123.273 309.233 122.921 309.082C122.569 308.932 122.251 308.712 121.987 308.436C121.723 308.159 121.517 307.832 121.383 307.474C121.249 307.116 121.189 306.735 121.206 306.353V304.317C119.075 306.883 116.094 308.601 112.803 309.16C109.513 309.718 106.131 309.081 103.271 307.362C101.097 306.027 99.3323 304.121 98.1679 301.852C96.912 299.432 96.2745 296.738 96.3121 294.012C96.2768 291.27 96.9633 288.566 98.3029 286.173C99.6002 283.866 101.503 281.957 103.806 280.651C106.182 279.292 108.879 278.593 111.616 278.626C114.33 278.592 117.002 279.292 119.35 280.651ZM116.631 303.031C118.12 302.136 119.338 300.855 120.155 299.323C121.018 297.698 121.456 295.881 121.429 294.042C121.456 292.189 121.018 290.359 120.155 288.719C119.529 287.566 118.677 286.55 117.649 285.732C116.622 284.914 115.44 284.312 114.175 283.96C112.91 283.609 111.586 283.515 110.284 283.686C108.982 283.856 107.727 284.287 106.595 284.952C105.107 285.861 103.891 287.152 103.072 288.69C102.191 290.324 101.742 292.156 101.768 294.012C101.742 295.855 102.191 297.674 103.072 299.294C103.896 300.82 105.112 302.1 106.595 303.002C108.117 303.893 109.849 304.363 111.613 304.363C113.377 304.363 115.109 303.893 116.631 303.002V303.031Z" fill="#406060" stroke="#406060" stroke-width="2.02007" stroke-linecap="round" stroke-linejoin="round"/>
<path d="M167.596 279.454C168.001 279.911 168.212 280.509 168.183 281.12C168.189 281.668 168.096 282.213 167.907 282.728L159.685 307.327C159.495 307.853 159.146 308.308 158.687 308.63C158.223 308.976 157.658 309.162 157.078 309.158C156.472 309.165 155.88 308.98 155.387 308.63C154.919 308.324 154.575 307.862 154.418 307.327L148.985 287.211L143.271 307.327C143.075 307.859 142.715 308.315 142.244 308.63C141.768 308.973 141.195 309.158 140.608 309.158C140.021 309.158 139.449 308.973 138.973 308.63C138.503 308.314 138.145 307.858 137.951 307.327L129.729 282.728C129.578 282.224 129.502 281.699 129.506 281.173C129.506 279.624 130.287 278.826 131.855 278.826C132.495 278.791 133.125 279.001 133.617 279.412C134.159 279.95 134.552 280.619 134.756 281.355L140.746 300.027L146.402 280.909C146.562 280.315 146.9 279.785 147.37 279.389C147.881 278.983 148.521 278.775 149.173 278.802C149.813 278.775 150.44 278.984 150.935 279.389C151.405 279.787 151.745 280.316 151.91 280.909L156.902 300.414L162.998 281.355C163.514 279.653 164.477 278.808 165.881 278.808C166.195 278.795 166.509 278.846 166.804 278.957C167.099 279.068 167.368 279.237 167.596 279.454Z" fill="#406060" stroke="#406060" stroke-width="2.02007" stroke-linecap="round" stroke-linejoin="round"/>
<path d="M194.38 280.651C196.668 281.977 198.562 283.889 199.865 286.19C201.222 288.578 201.917 291.284 201.879 294.03V306.353C201.897 306.735 201.836 307.116 201.702 307.474C201.568 307.832 201.362 308.159 201.098 308.436C200.834 308.712 200.516 308.932 200.164 309.082C199.813 309.233 199.434 309.31 199.051 309.31C198.669 309.31 198.29 309.233 197.938 309.082C197.587 308.932 197.269 308.712 197.005 308.436C196.741 308.159 196.535 307.832 196.401 307.474C196.267 307.116 196.206 306.735 196.224 306.353V304.317C194.091 306.883 191.109 308.602 187.818 309.16C184.527 309.719 181.144 309.081 178.283 307.362C176.111 306.026 174.348 304.12 173.185 301.852C171.936 299.436 171.303 296.749 171.341 294.03C171.305 291.287 171.994 288.582 173.338 286.19C174.638 283.875 176.547 281.959 178.858 280.651C181.227 279.295 183.916 278.596 186.646 278.626C189.359 278.593 192.031 279.292 194.38 280.651ZM191.661 303.031C193.151 302.139 194.369 300.856 195.184 299.323C196.049 297.698 196.489 295.882 196.465 294.042C196.489 292.188 196.049 290.359 195.184 288.719C194.559 287.565 193.707 286.548 192.68 285.73C191.652 284.912 190.471 284.309 189.205 283.958C187.94 283.606 186.616 283.513 185.314 283.684C184.011 283.855 182.756 284.286 181.624 284.952C180.137 285.861 178.92 287.152 178.101 288.69C177.222 290.325 176.776 292.157 176.803 294.012C176.776 295.855 177.222 297.673 178.101 299.294C178.926 300.819 180.142 302.099 181.624 303.002C183.146 303.893 184.879 304.363 186.643 304.363C188.407 304.363 190.139 303.893 191.661 303.002V303.031Z" fill="#406060" stroke="#406060" stroke-width="2.02007" stroke-linecap="round" stroke-linejoin="round"/>
<path d="M232.277 280.257C234.312 281.365 235.972 283.052 237.045 285.104C238.25 287.48 238.841 290.118 238.766 292.78V306.382C238.783 306.764 238.723 307.145 238.589 307.503C238.455 307.861 238.249 308.188 237.985 308.465C237.72 308.741 237.403 308.961 237.051 309.111C236.699 309.262 236.321 309.339 235.938 309.339C235.556 309.339 235.177 309.262 234.825 309.111C234.473 308.961 234.156 308.741 233.892 308.465C233.627 308.188 233.422 307.861 233.288 307.503C233.153 307.145 233.093 306.764 233.111 306.382V292.756C233.111 289.764 232.306 287.501 230.697 285.967C229.088 284.434 226.954 283.667 224.296 283.667C222.826 283.648 221.373 283.972 220.05 284.612C218.843 285.18 217.809 286.059 217.055 287.158C216.339 288.223 215.962 289.479 215.974 290.761V306.382C215.989 306.757 215.928 307.131 215.795 307.482C215.661 307.833 215.459 308.153 215.199 308.424C214.802 308.832 214.292 309.112 213.734 309.226C213.176 309.341 212.597 309.286 212.071 309.068C211.545 308.849 211.097 308.478 210.785 308.003C210.472 307.527 210.31 306.969 210.319 306.4V281.672C210.303 281.293 210.366 280.915 210.504 280.563C210.643 280.21 210.854 279.89 211.123 279.624C211.685 279.125 212.41 278.849 213.161 278.849C213.913 278.849 214.638 279.125 215.199 279.624C215.461 279.894 215.665 280.216 215.798 280.568C215.932 280.92 215.991 281.295 215.974 281.672V282.258C217.177 281.066 218.612 280.134 220.191 279.518C222.143 278.78 224.23 278.464 226.313 278.591C228.397 278.718 230.429 279.286 232.277 280.257Z" fill="#406060" stroke="#406060" stroke-width="2.02007" stroke-linecap="round" stroke-linejoin="round"/>
<path d="M276.362 266.655C276.623 266.927 276.827 267.25 276.96 267.603C277.093 267.956 277.153 268.332 277.137 268.709V293.971C277.171 296.717 276.474 299.423 275.117 301.811C273.794 304.142 271.867 306.075 269.539 307.406C267.211 308.737 264.567 309.417 261.886 309.375C259.156 309.406 256.468 308.709 254.099 307.356C251.788 306.044 249.879 304.127 248.578 301.811C247.236 299.418 246.547 296.714 246.582 293.971C246.545 291.242 247.184 288.547 248.443 286.125C249.614 283.859 251.383 281.956 253.558 280.621C256.411 278.874 259.802 278.22 263.101 278.78C266.4 279.34 269.383 281.076 271.499 283.667V268.709C271.483 268.33 271.547 267.951 271.685 267.598C271.824 267.244 272.034 266.923 272.304 266.655C272.865 266.156 273.59 265.88 274.341 265.88C275.093 265.88 275.818 266.156 276.379 266.655H276.362ZM266.907 303.037C268.402 302.137 269.621 300.844 270.43 299.299C271.291 297.658 271.729 295.829 271.705 293.977C271.73 292.138 271.291 290.321 270.43 288.696C269.8 287.546 268.946 286.534 267.917 285.72C266.889 284.906 265.707 284.307 264.443 283.958C263.178 283.609 261.856 283.517 260.556 283.687C259.255 283.858 258.002 284.288 256.87 284.952C255.386 285.855 254.17 287.137 253.347 288.666C252.466 290.286 252.017 292.104 252.043 293.948C252.018 295.804 252.466 297.635 253.347 299.27C254.164 300.809 255.381 302.101 256.87 303.008C258.392 303.899 260.125 304.369 261.889 304.369C263.653 304.369 265.385 303.899 266.907 303.008V303.037Z" fill="#406060" stroke="#406060" stroke-width="2.02007" stroke-linecap="round" stroke-linejoin="round"/>
<path d="M308.608 280.65C310.898 281.975 312.792 283.888 314.093 286.19C315.454 288.577 316.154 291.283 316.119 294.03V306.353C316.137 306.734 316.076 307.116 315.942 307.474C315.808 307.832 315.602 308.159 315.338 308.435C315.074 308.712 314.756 308.932 314.404 309.082C314.053 309.232 313.674 309.31 313.291 309.31C312.909 309.31 312.53 309.232 312.179 309.082C311.827 308.932 311.509 308.712 311.245 308.435C310.981 308.159 310.775 307.832 310.641 307.474C310.507 307.116 310.446 306.734 310.464 306.353V304.316C308.331 306.883 305.349 308.601 302.058 309.16C298.767 309.719 295.384 309.081 292.523 307.362C290.351 306.026 288.588 304.12 287.426 301.852C286.168 299.432 285.528 296.739 285.564 294.012C285.531 291.269 286.219 288.566 287.561 286.172C288.86 283.857 290.769 281.941 293.081 280.633C295.45 279.277 298.138 278.578 300.868 278.608C303.585 278.579 306.26 279.285 308.608 280.65ZM305.889 303.031C307.378 302.136 308.595 300.854 309.413 299.323C310.273 297.696 310.711 295.881 310.687 294.041C310.711 292.189 310.273 290.36 309.413 288.719C308.787 287.564 307.934 286.546 306.906 285.728C305.877 284.909 304.695 284.306 303.428 283.954C302.161 283.603 300.836 283.51 299.533 283.681C298.229 283.853 296.974 284.285 295.841 284.952C294.352 285.859 293.135 287.15 292.317 288.69C291.437 290.324 290.988 292.156 291.014 294.012C290.988 295.855 291.437 297.674 292.317 299.293C293.141 300.821 294.357 302.101 295.841 303.002C297.363 303.893 299.095 304.363 300.859 304.363C302.623 304.363 304.355 303.893 305.877 303.002L305.889 303.031Z" fill="#406060" stroke="#406060" stroke-width="2.02007" stroke-linecap="round" stroke-linejoin="round"/>
</g>
<defs>
<clipPath id="clip0_948_9116">
<rect width="259" height="58" fill="white" transform="translate(58 265)"/>
</clipPath>
</defs>
</svg>
