<svg width="18" height="19" viewBox="0 0 18 19" fill="none" xmlns="http://www.w3.org/2000/svg">
<g clip-path="url(#clip0_1441_4387)">
<path opacity="0.3" d="M9 3.49219C5.685 3.49219 3 6.17719 3 9.49219C3 12.8072 5.685 15.4922 9 15.4922C12.315 15.4922 15 12.8072 15 9.49219C15 6.17719 12.315 3.49219 9 3.49219ZM12.1875 12.6722C10.425 14.4272 7.575 14.4272 5.82 12.6722L9 9.49219V4.99219C10.155 4.99219 11.3025 5.43469 12.18 6.31219C13.9425 8.06719 13.9425 10.9172 12.1875 12.6722Z" fill="#F2994A"/>
<path d="M12.18 6.31219C11.3025 5.43469 10.155 4.99219 9 4.99219V9.49219L5.82 12.6722C7.575 14.4272 10.425 14.4272 12.1875 12.6722C13.9425 10.9172 13.9425 8.06719 12.18 6.31219ZM9 1.99219C4.86 1.99219 1.5 5.35219 1.5 9.49219C1.5 13.6322 4.86 16.9922 9 16.9922C13.14 16.9922 16.5 13.6322 16.5 9.49219C16.5 5.35219 13.14 1.99219 9 1.99219ZM9 15.4922C5.685 15.4922 3 12.8072 3 9.49219C3 6.17719 5.685 3.49219 9 3.49219C12.315 3.49219 15 6.17719 15 9.49219C15 12.8072 12.315 15.4922 9 15.4922Z" fill="#F2994A"/>
</g>
<defs>
<clipPath id="clip0_1441_4387">
<rect width="18" height="18" fill="white" transform="translate(0 0.5)"/>
</clipPath>
</defs>
</svg>
