<svg width="21" height="21" viewBox="0 0 21 21" fill="none" xmlns="http://www.w3.org/2000/svg">
<g clip-path="url(#clip0_1298_4929)">
<path d="M3.83268 15.5002C4.01602 14.9002 6.59102 13.8335 8.83268 13.8335C8.83268 13.2502 8.94102 12.6918 9.12435 12.1752C6.84935 12.0918 2.16602 13.2252 2.16602 15.5002V17.1669H10.116C9.68268 16.6835 9.34102 16.1252 9.12435 15.5002H3.83268Z" fill="#406060"/>
<path d="M8.83333 11.3337C10.675 11.3337 12.1667 9.84199 12.1667 8.00033C12.1667 6.15866 10.675 4.66699 8.83333 4.66699C6.99167 4.66699 5.5 6.15866 5.5 8.00033C5.5 9.84199 6.99167 11.3337 8.83333 11.3337ZM8.83333 6.33366C9.75 6.33366 10.5 7.07533 10.5 8.00033C10.5 8.91699 9.75 9.66699 8.83333 9.66699C7.91667 9.66699 7.16667 8.91699 7.16667 8.00033C7.16667 7.07533 7.91667 6.33366 8.83333 6.33366Z" fill="#406060"/>
<g opacity="0.3">
<path opacity="0.3" d="M9.1237 15.5007C9.1237 15.5007 8.83203 14.8423 8.83203 13.834C6.59036 13.834 4.0237 14.9007 3.83203 15.5007H9.1237Z" fill="#406060"/>
</g>
<path d="M16.6917 15.5167C16.9917 15.025 17.1667 14.45 17.1667 13.8333C17.1667 11.9917 15.675 10.5 13.8333 10.5C11.9917 10.5 10.5 11.9917 10.5 13.8333C10.5 15.675 11.9917 17.1667 13.8333 17.1667C14.45 17.1667 15.025 16.9833 15.5167 16.6917C16.2917 17.4667 16.8667 18.0417 17.6583 18.8333L18.8333 17.6583C17.5833 16.4083 18.175 16.9917 16.6917 15.5167ZM13.8333 15.5C12.9167 15.5 12.1667 14.75 12.1667 13.8333C12.1667 12.9167 12.9167 12.1667 13.8333 12.1667C14.75 12.1667 15.5 12.9167 15.5 13.8333C15.5 14.75 14.75 15.5 13.8333 15.5Z" fill="#406060"/>
<g opacity="0.3">
<path opacity="0.3" d="M8.83268 9.66732C9.75316 9.66732 10.4993 8.92113 10.4993 8.00065C10.4993 7.08018 9.75316 6.33398 8.83268 6.33398C7.91221 6.33398 7.16602 7.08018 7.16602 8.00065C7.16602 8.92113 7.91221 9.66732 8.83268 9.66732Z" fill="#406060"/>
</g>
</g>
<defs>
<clipPath id="clip0_1298_4929">
<rect width="20" height="20" fill="white" transform="translate(0.5 0.5)"/>
</clipPath>
</defs>
</svg>
