<svg width="21" height="21" viewBox="0 0 21 21" fill="none" xmlns="http://www.w3.org/2000/svg">
<path d="M7.27539 11.878C4.77539 13.9613 5.19206 15.628 5.19206 16.0446C5.60872 18.5445 8.94206 18.5447 10.1921 18.1281C11.4421 17.7114 13.9421 18.5447 15.1921 18.1281C16.4421 17.7114 15.1921 17.2947 14.3587 16.8781C13.5254 16.4614 13.5254 15.6281 13.5254 14.3781C13.5254 13.1281 13.4993 11.3339 13.916 10.5007C14.3327 9.66743 13.9421 9.37807 14.3587 8.54473C14.7754 7.7114 16.0254 8.54473 17.2754 8.12807C18.2754 7.79473 17.9698 7.15584 17.6921 6.87807C17.2754 6.46136 15.916 5.71444 15.5827 5.04777C15.166 4.21444 13.9421 3.54462 13.5254 3.96128C13.1087 4.37795 9.77539 9.79462 7.27539 11.878Z" fill="#406060" fill-opacity="0.3"/>
<path d="M15.7396 18.8399L12.1272 18.815H7.618C6.69622 18.815 5.82427 18.3915 5.25128 17.669C5.22637 17.7188 5.17654 17.7686 5.15163 17.7935C4.60355 18.4413 3.7316 18.7901 2.5607 18.7901H2.46105C2.13718 18.7901 1.86314 18.516 1.86314 18.1922C1.86314 17.8683 2.13718 17.5942 2.46105 17.5942C3.28317 17.5942 3.88108 17.4199 4.20494 17.0462C4.42916 16.7721 4.55372 16.3984 4.55372 16.0247C4.52881 15.9002 4.52881 15.7756 4.52881 15.651V15.6261C4.52881 14.7044 4.92741 13.8573 5.60006 13.2345L10.6324 8.07756C10.6574 8.05264 10.6823 8.00282 10.7321 7.9779C10.1342 8.00282 9.53628 7.95299 8.93837 7.82843C7.76747 7.60421 6.67131 7.15578 5.64988 6.53296C4.25477 5.61119 3.00913 4.49011 1.96279 3.16973C1.76349 2.9206 1.7884 2.522 2.06244 2.3227C2.187 2.19813 2.33648 2.14831 2.51087 2.17322C2.66035 2.19813 2.80983 2.27287 2.90948 2.39744C3.85616 3.61816 5.00215 4.63959 6.29762 5.48662C7.16957 6.0347 8.14117 6.43331 9.16259 6.63261C9.98471 6.807 10.8068 6.807 11.629 6.63261C12.2269 5.68593 12.7999 4.6645 12.9992 4.29081C13.0241 3.6929 13.1486 3.09499 13.3978 2.522C13.4725 2.37252 13.5971 2.27287 13.7465 2.19813C13.896 2.14831 14.0455 2.17322 14.195 2.22305C14.3445 2.29778 14.4441 2.42235 14.5188 2.57183L15.042 4.01677C15.6399 4.39046 16.1382 4.91363 16.487 5.53645C16.8357 6.0347 17.3838 6.38348 18.0066 6.50805C18.3056 6.55787 18.5049 6.807 18.5049 7.10596C18.5298 8.3516 17.5333 9.37302 16.2877 9.37302C15.8143 9.37302 15.3659 9.22354 14.9922 8.9495L14.5936 9.24846L14.2697 10.818C14.5438 11.2664 14.6932 11.939 14.6932 12.811C14.6932 13.2843 14.6185 13.7826 14.4441 14.231V16.3735C14.6185 16.4233 14.768 16.4732 14.9424 16.523C15.6897 16.7472 16.2378 17.37 16.3624 18.1423C16.3873 18.3167 16.3375 18.4911 16.2129 18.6406C16.0884 18.7651 15.914 18.8399 15.7396 18.8399ZM12.6753 17.5942L14.4192 17.6192C14.2199 17.5444 14.0206 17.5195 13.7964 17.5195C13.4725 17.5195 13.1985 17.2455 13.1985 16.9216V14.1314C13.1985 14.0566 13.2234 13.957 13.2483 13.8822C13.3978 13.5584 13.4476 13.1847 13.4476 12.8359C13.4476 11.7896 13.2234 11.4657 13.1486 11.391C13.0241 11.2415 12.9742 11.0422 12.9992 10.8678L13.3479 9.14881L12.1272 8.07756C11.9279 8.37651 11.7037 8.65055 11.4795 8.89968L6.42218 14.1314C5.99866 14.5051 5.74954 15.0531 5.74954 15.6261C5.77445 15.7258 5.77445 15.8504 5.77445 15.9749C5.89901 16.8967 6.69622 17.5942 7.618 17.6192H10.7819C10.7819 17.6192 10.7819 17.6192 10.757 17.6192C10.4082 17.5195 10.0595 17.4448 9.71067 17.4199C9.38681 17.3949 9.13768 17.1209 9.13768 16.797C9.16259 15.3023 8.34047 14.6296 8.34047 14.6296C8.2159 14.53 8.14117 14.4054 8.11625 14.231C8.09134 14.0815 8.14117 13.9072 8.24082 13.7826C8.34047 13.658 8.48994 13.5584 8.63942 13.5335C8.7889 13.5085 8.96329 13.5584 9.08785 13.658C9.63593 14.1314 10.0096 14.7542 10.2089 15.4268C10.7321 15.1279 11.33 14.9784 11.9279 15.0282C12.2269 15.0282 12.476 15.2774 12.5009 15.5763L12.6753 17.5942ZM10.9314 16.3735C11.0061 16.3984 11.0809 16.4233 11.1307 16.4233C11.2054 16.4483 11.3051 16.4732 11.3798 16.523L11.3549 16.249C11.2054 16.2739 11.056 16.2988 10.9314 16.3735ZM15.0171 7.55439C15.1915 7.55439 15.3659 7.62912 15.4904 7.7786C15.6648 8.02773 15.9638 8.17721 16.2627 8.17721C16.6613 8.17721 17.035 7.90317 17.1845 7.55439C16.487 7.30526 15.8641 6.807 15.4406 6.2091L15.4157 6.15927C15.2911 5.93505 14.8178 5.26241 14.2946 5.01328C14.195 4.96345 14.1202 4.91363 14.0704 4.83889C13.896 5.16276 13.3729 6.13436 12.7999 7.05613L14.0455 8.15229L14.6434 7.70386C14.768 7.60421 14.8925 7.55439 15.0171 7.55439Z" fill="#406060"/>
</svg>
