<svg width="21" height="21" viewBox="0 0 21 21" fill="none" xmlns="http://www.w3.org/2000/svg">
<g clip-path="url(#clip0_1298_4957)">
<path opacity="0.3" d="M10.5 8.91699C11.4665 8.91699 12.25 8.13349 12.25 7.16699C12.25 6.20049 11.4665 5.41699 10.5 5.41699C9.5335 5.41699 8.75 6.20049 8.75 7.16699C8.75 8.13349 9.5335 8.91699 10.5 8.91699Z" fill="#406060"/>
<path opacity="0.3" d="M10.4993 12.917C8.02435 12.917 5.41602 14.1337 5.41602 14.667V15.5837H15.5827V14.667C15.5827 14.1337 12.9743 12.917 10.4993 12.917Z" fill="#406060"/>
<path d="M10.5007 11.333C8.27565 11.333 3.83398 12.4497 3.83398 14.6663V17.1663H17.1673V14.6663C17.1673 12.4497 12.7256 11.333 10.5007 11.333ZM15.584 15.583H5.41732V14.6663C5.41732 14.133 8.02565 12.9163 10.5007 12.9163C12.9756 12.9163 15.584 14.133 15.584 14.6663V15.583ZM10.5007 10.4997C12.3423 10.4997 13.834 9.00801 13.834 7.16634C13.834 5.32467 12.3423 3.83301 10.5007 3.83301C8.65898 3.83301 7.16732 5.32467 7.16732 7.16634C7.16732 9.00801 8.65898 10.4997 10.5007 10.4997ZM10.5007 5.41634C11.4673 5.41634 12.2507 6.19967 12.2507 7.16634C12.2507 8.13301 11.4673 8.91634 10.5007 8.91634C9.53398 8.91634 8.75065 8.13301 8.75065 7.16634C8.75065 6.19967 9.53398 5.41634 10.5007 5.41634Z" fill="#406060"/>
</g>
<defs>
<clipPath id="clip0_1298_4957">
<rect width="20" height="20" fill="white" transform="translate(0.5 0.5)"/>
</clipPath>
</defs>
</svg>
