<svg width="20" height="21" viewBox="0 0 20 21" fill="none" xmlns="http://www.w3.org/2000/svg">
<g clip-path="url(#clip0_1521_2582)">
<path d="M16.666 2.99967H15.8327V1.33301H14.166V2.99967H5.83268V1.33301H4.16602V2.99967H3.33268C2.41602 2.99967 1.66602 3.74967 1.66602 4.66634V17.9997C1.66602 18.9163 2.41602 19.6663 3.33268 19.6663H16.666C17.5827 19.6663 18.3327 18.9163 18.3327 17.9997V4.66634C18.3327 3.74967 17.5827 2.99967 16.666 2.99967ZM16.666 4.66634V7.16634H3.33268V4.66634H16.666ZM3.33268 17.9997V8.83301H16.666V17.9997H3.33268Z" fill="#406060"/>
<path opacity="0.3" d="M3.33398 4.6748H16.6673V7.16647H3.33398V4.6748Z" fill="#406060"/>
</g>
<defs>
<clipPath id="clip0_1521_2582">
<rect width="20" height="20" fill="white" transform="translate(0 0.5)"/>
</clipPath>
</defs>
</svg>
