<svg width="24" height="24" viewBox="0 0 24 24" fill="none" xmlns="http://www.w3.org/2000/svg">
<g clip-path="url(#clip0_1248_5596)">
<path fill-rule="evenodd" clip-rule="evenodd" d="M10.3945 2.92278L7.83142 7.00045L12.6081 11.1946L11.4431 14.2238L15.6372 10.6121L12.0256 6.41793L14.4722 3.3888L13.8897 2.68977C15.9868 1.0587 19.0159 1.0587 21.113 2.92278C23.9091 5.48589 23.9091 9.91307 20.9965 12.4762L12.6081 19.6995C12.3751 19.816 12.3751 19.9325 12.2586 19.9325C12.1421 19.9325 12.0256 19.9325 11.7926 19.9325C11.6761 19.9325 11.5596 19.816 11.4431 19.6995L3.05472 12.4762C0.142099 10.0296 0.142099 5.48589 2.93822 2.92278C5.15181 1.0587 8.29744 1.0587 10.3945 2.92278Z" fill="#F6E0DB"/>
<path d="M12.0248 22.1462C11.9083 22.1462 11.7918 22.1462 11.6753 22.1462C11.3258 22.0297 11.2092 21.9132 10.9762 21.7967C10.8597 21.6802 10.7432 21.5637 10.6267 21.4472L2.35488 13.6413C-0.441239 11.0782 -0.790753 6.88405 1.53934 3.97143L1.88886 3.3889C2.9374 1.99084 4.45196 1.17531 6.08303 1.0588C7.7141 0.942298 9.46167 1.40832 10.7432 2.57337L11.2092 2.92288C11.3258 3.03939 11.3258 3.2724 11.2092 3.3889L9.69468 5.48599C9.34517 5.8355 8.99565 6.30152 8.87915 6.53453C8.76264 6.65104 8.76264 6.65104 8.76264 6.76754C8.76264 6.76754 8.76264 6.76754 8.87915 6.88405C9.11216 7.11706 9.57818 7.35007 10.0442 7.58308L11.6753 8.51511C12.1413 8.74812 12.6073 9.09764 12.8403 9.33065C13.0733 9.56366 13.5393 9.91317 13.6558 10.4957C13.7724 11.0782 13.5393 11.5442 13.4228 11.8938C13.1898 12.2433 12.9568 12.7093 12.7238 13.1753L11.6753 14.6899C11.6753 14.8064 11.5588 14.8064 11.4423 14.8064C11.3258 14.8064 11.2092 14.8064 11.2092 14.8064L10.1607 14.1073C10.0442 14.1073 10.0442 13.9908 10.0442 13.8743C10.0442 13.7578 10.0442 13.6413 10.0442 13.6413L11.0927 12.1268C11.3258 11.6607 11.5588 11.3112 11.6753 11.0782C11.7918 10.9617 11.7918 10.8452 11.7918 10.8452C11.7918 10.8452 11.7918 10.8452 11.6753 10.7287C11.4423 10.6122 11.0927 10.3792 10.6267 10.1462L9.11216 9.21414C8.52964 8.86463 8.06361 8.63162 7.7141 8.2821C7.48109 8.04909 7.01507 7.69958 6.89857 7.00055C6.78206 6.41803 7.01507 5.95201 7.24808 5.60249C7.48109 5.13647 7.7141 4.78696 8.18012 4.32094L8.87915 3.50541C7.01507 2.45686 4.68498 2.92288 3.40342 4.55395L3.05391 5.13647C1.30633 7.23356 1.65585 10.2627 3.63643 12.2433L12.0248 20.1656L12.1413 20.0491L20.5296 12.2433C22.5102 10.3792 22.7432 7.35007 21.1122 5.13647L20.6461 4.55395C19.9471 3.62191 18.8986 3.03939 17.85 2.92288C16.685 2.80638 15.5199 3.15589 14.7044 3.73842C14.5879 3.85492 14.3549 3.85492 14.2384 3.73842L13.5393 2.80638C13.5393 2.68987 13.4228 2.68987 13.4228 2.57337C13.4228 2.45686 13.5393 2.34036 13.5393 2.34036C14.8209 1.29181 16.452 0.825794 18.083 1.0588C19.7141 1.29181 21.1122 2.10735 22.1607 3.3889L22.5102 3.85492C24.8403 6.76754 24.4908 10.9617 21.6947 13.5248L13.3063 21.3306C13.1898 21.4472 13.0733 21.5637 12.8403 21.6802C12.7238 21.7967 12.4908 21.9132 12.1413 22.0297C12.2578 22.1462 12.1413 22.1462 12.0248 22.1462Z" fill="#C82861"/>
</g>
<defs>
<clipPath id="clip0_1248_5596">
<rect width="24" height="24" fill="white"/>
</clipPath>
</defs>
</svg>
