<svg width="28" height="28" viewBox="0 0 28 28" fill="none" xmlns="http://www.w3.org/2000/svg">
<g clip-path="url(#clip0_625_11750)">
<path d="M14.4673 25.083C12.484 25.083 10.8506 23.4497 10.8506 21.4664C10.8506 20.6497 11.084 19.833 11.5507 19.2497C6.06735 18.6663 2.33398 16.2164 2.33398 13.2997V8.39969C2.33398 5.01636 7.70068 2.33301 14.4673 2.33301C20.7673 2.33301 25.9007 4.54965 26.484 7.69965C26.484 7.81631 26.6006 7.93304 26.6006 8.0497V13.2997C26.6006 16.2164 22.8673 18.5497 17.384 19.2497C17.8507 19.833 18.084 20.6497 18.084 21.4664C18.084 23.4497 16.4507 25.083 14.4673 25.083ZM14.4673 19.483C13.3007 19.483 12.484 20.4164 12.484 21.4664C12.484 22.5164 13.4173 23.4496 14.4673 23.4496C15.5173 23.4496 16.4506 22.5164 16.4506 21.4664C16.4506 20.4164 15.5173 19.483 14.4673 19.483ZM3.96735 11.5497V13.4163C3.96735 15.5163 8.28401 17.9664 14.4673 17.9664C20.6507 17.9664 24.9673 15.633 24.9673 13.4163V11.5497C22.8673 13.4164 18.9007 14.583 14.4673 14.583C9.91735 14.4663 6.06735 13.4164 3.96735 11.5497ZM5.71735 10.8497C7.70068 12.133 10.9673 12.833 14.3506 12.833C17.8506 12.833 21.0007 12.0163 22.984 10.8497C21.0007 9.56633 17.734 8.86631 14.3506 8.86631C10.9673 8.86631 7.70068 9.68299 5.71735 10.8497ZM14.4673 7.23302C18.5507 7.23302 22.1673 8.16637 24.384 9.7997C24.734 9.33304 24.9673 8.86635 24.9673 8.39969C24.9673 6.29969 20.6507 3.84966 14.4673 3.84966C8.28401 3.84966 3.96735 6.18302 3.96735 8.39969C3.96735 8.86635 4.20068 9.33304 4.55068 9.7997C6.76735 8.28304 10.384 7.23302 14.4673 7.23302Z" fill="#406060"/>
<path opacity="0.3" d="M3.9668 11.5498V13.4165C3.9668 15.5165 8.28346 17.9665 14.4668 17.9665C20.6501 17.9665 24.9668 15.6331 24.9668 13.4165V11.5498C22.8668 13.4165 18.9001 14.5831 14.4668 14.5831C9.9168 14.4665 6.0668 13.4165 3.9668 11.5498Z" fill="#406060"/>
<path opacity="0.3" d="M14.4668 7.23294C18.5501 7.23294 22.1668 8.16628 24.3835 9.79961C24.7335 9.33294 24.9668 8.86628 24.9668 8.39961C24.9668 6.29961 20.6501 3.84961 14.4668 3.84961C8.28346 3.84961 3.9668 6.18294 3.9668 8.39961C3.9668 8.86628 4.20013 9.33294 4.55013 9.79961C6.7668 8.28294 10.3835 7.23294 14.4668 7.23294Z" fill="#406060"/>
<path opacity="0.3" d="M14.4677 23.4501C15.5631 23.4501 16.451 22.5621 16.451 21.4667C16.451 20.3714 15.5631 19.4834 14.4677 19.4834C13.3723 19.4834 12.4844 20.3714 12.4844 21.4667C12.4844 22.5621 13.3723 23.4501 14.4677 23.4501Z" fill="#406060"/>
</g>
<defs>
<clipPath id="clip0_625_11750">
<rect width="24.2667" height="22.75" fill="white" transform="translate(2.33398 2.33301)"/>
</clipPath>
</defs>
</svg>
