<svg width="28" height="28" viewBox="0 0 28 28" fill="none" xmlns="http://www.w3.org/2000/svg">
<g clip-path="url(#clip0_625_11760)">
<path opacity="0.3" d="M14.0007 7.58301C11.0957 7.58301 9.33398 9.93967 9.33398 12.833V19.833H18.6673V12.833C18.6673 9.93967 16.9057 7.58301 14.0007 7.58301Z" fill="#406060"/>
<path d="M20.9993 18.667V12.8337C20.9993 9.25199 19.0977 6.25366 15.7493 5.46033V4.66699C15.7493 3.69866 14.9677 2.91699 13.9993 2.91699C13.031 2.91699 12.2493 3.69866 12.2493 4.66699V5.46033C8.91268 6.25366 6.99935 9.24033 6.99935 12.8337V18.667L4.66602 21.0003V22.167H23.3327V21.0003L20.9993 18.667ZM18.666 19.8337H9.33268V12.8337C9.33268 9.94033 11.0943 7.58366 13.9993 7.58366C16.9043 7.58366 18.666 9.94033 18.666 12.8337V19.8337ZM13.9993 25.667C15.2827 25.667 16.3327 24.617 16.3327 23.3337H11.666C11.666 24.617 12.716 25.667 13.9993 25.667Z" fill="#406060"/>
</g>
<defs>
<clipPath id="clip0_625_11760">
<rect width="28" height="28" fill="white"/>
</clipPath>
</defs>
</svg>
