<svg width="24" height="24" viewBox="0 0 24 24" fill="none" xmlns="http://www.w3.org/2000/svg">
<g clip-path="url(#clip0_1672_5983)">
<path d="M15.3403 23.9998C14.706 24.0028 14.0768 23.8837 13.4865 23.6488C13.1147 23.4999 12.7193 23.4206 12.3196 23.4147C11.9304 23.4254 11.5461 23.5046 11.1839 23.6488C10.5235 23.9081 9.8172 24.0263 9.10946 23.9961C8.40172 23.9659 7.70781 23.7879 7.07134 23.4732C5.78415 22.8296 4.82309 21.7799 4.36453 20.5143C3.75795 18.8385 4.30671 16.9064 5.76795 15.5928C6.40808 15.017 6.79551 14.3412 6.98749 13.4659C7.23209 12.3413 7.78606 11.4179 8.58925 10.7989C9.36873 10.1985 10.3373 9.79481 11.3909 9.63156C11.3965 9.62983 11.4023 9.62866 11.4082 9.62805C11.721 9.57697 12.0374 9.55115 12.3543 9.55082C12.6558 9.54969 12.9568 9.57652 13.2534 9.63098C14.3203 9.79306 15.2976 10.198 16.0788 10.8012C16.8825 11.425 17.4359 12.3471 17.6805 13.4688C17.8708 14.3424 18.2588 15.0182 18.8995 15.5951C20.3596 16.9064 20.9107 18.8367 20.3035 20.5131C19.8409 21.7758 18.8798 22.8267 17.5967 23.4727C16.8948 23.822 16.1226 24.0025 15.3403 23.9998ZM12.3224 21.1971H12.3334C13.0067 21.2043 13.673 21.336 14.2995 21.5856C14.6732 21.7298 15.072 21.7954 15.4716 21.7783C15.8712 21.7612 16.2632 21.6618 16.6235 21.4862C17.4041 21.093 17.9795 20.4762 18.2426 19.7495C18.5369 18.9385 18.2218 17.9596 17.4406 17.2557C16.4489 16.3599 15.8267 15.2774 15.5387 13.9463C15.4444 13.5232 15.2299 12.9393 14.7476 12.5677C14.1324 12.0914 13.302 11.8111 12.4063 11.7778H12.3196H12.2756C11.377 11.8117 10.5443 12.092 9.92906 12.5677C9.44044 12.9451 9.2288 13.5261 9.13801 13.9468C8.84888 15.2768 8.229 16.3599 7.23614 17.2563C6.45376 17.9585 6.13746 18.9374 6.43352 19.7501C6.69778 20.4786 7.27315 21.0959 8.05263 21.4867C8.413 21.6622 8.80494 21.7615 9.20451 21.7786C9.60407 21.7957 10.0029 21.7303 10.3766 21.5862C10.9942 21.34 11.6506 21.2084 12.3144 21.1977L12.3224 21.1971Z" fill="#406060"/>
<path d="M8.89683 9.8248C7.01693 9.8248 5.54297 7.66687 5.54297 4.90977C5.54297 2.15267 7.01693 0 8.89683 0C10.7767 0 12.2507 2.15793 12.2507 4.91504C12.2507 7.67214 10.7762 9.8248 8.89683 9.8248ZM8.89683 2.22288C8.48917 2.22288 7.74033 3.24392 7.74033 4.91445C7.74033 6.58498 8.48859 7.60602 8.89683 7.60602C9.30508 7.60602 10.0533 6.58498 10.0533 4.91445C10.0533 3.24392 9.30392 2.22347 8.89683 2.22347V2.22288Z" fill="#406060"/>
<path d="M20.9139 15.8964C19.1849 15.8964 17.8301 13.9356 17.8301 11.433C17.8301 8.93047 19.1849 6.96973 20.9139 6.96973C22.6429 6.96973 23.9966 8.92989 24 11.4325C24.0035 13.935 22.644 15.8964 20.9139 15.8964ZM20.9139 9.18851C20.6502 9.18851 20.0269 10.058 20.0269 11.4295C20.0269 12.8011 20.6502 13.6706 20.9139 13.6706C21.1776 13.6706 21.8004 12.8005 21.8038 11.429C21.8073 10.0574 21.1776 9.18617 20.9139 9.18617V9.18851Z" fill="#406060"/>
<path d="M15.9593 9.8248C14.0794 9.8248 12.6055 7.66687 12.6055 4.90977C12.6055 2.15267 14.0794 0 15.9593 0C17.8392 0 19.3132 2.15793 19.3132 4.91504C19.3132 7.67214 17.8387 9.8248 15.9593 9.8248ZM15.9593 2.22347C15.5546 2.22347 14.8028 3.24451 14.8028 4.91504C14.8028 6.58556 15.5511 7.6066 15.9593 7.6066C16.3676 7.6066 17.1158 6.58556 17.1158 4.91504C17.1158 3.24451 16.3664 2.22347 15.9593 2.22347Z" fill="#406060"/>
<path d="M3.91324 15.7178C2.28257 15.7178 1.00348 13.8342 1.00001 11.43C0.996538 9.0257 2.27968 7.1416 3.91324 7.1416C5.54681 7.1416 6.8259 9.02511 6.8259 11.4294C6.8259 13.8337 5.54623 15.7178 3.91324 15.7178ZM3.91324 9.19246C3.65014 9.19246 3.02389 10.0637 3.02389 11.4341C3.02389 12.8044 3.65014 13.6739 3.9144 13.6739C4.17866 13.6739 4.80433 12.8044 4.80433 11.4329C4.80433 10.0614 4.17693 9.19246 3.91324 9.19246Z" fill="#406060"/>
</g>
<defs>
<clipPath id="clip0_1672_5983">
<rect width="23" height="24" fill="white" transform="translate(1)"/>
</clipPath>
</defs>
</svg>
